<svg width="21" height="21" viewBox="0 0 21 21" fill="none" xmlns="http://www.w3.org/2000/svg">
<path d="M17.6247 0.291458H3.48469C2.70754 0.292424 1.96337 0.601353 1.41389 1.15059C0.864416 1.69974 0.555492 2.44439 0.554688 3.22106V17.3615C0.555492 18.1381 0.864416 18.8827 1.41389 19.4319C1.96337 19.9812 2.70754 20.2901 3.48469 20.2911H17.6247C18.4018 20.2901 19.146 19.9812 19.6955 19.4319C20.2441 18.8827 20.5531 18.1381 20.5547 17.3615V3.22106C20.5531 2.44439 20.2441 1.69974 19.6955 1.15059C19.146 0.601353 18.4018 0.292424 17.6247 0.291458ZM10.5957 15.5252C9.55228 15.5252 8.53297 15.216 7.66571 14.6365C6.79846 14.0571 6.12267 13.2335 5.72364 12.2699C5.3246 11.3063 5.22002 10.246 5.42355 9.22308C5.62709 8.20007 6.1291 7.26048 6.86683 6.52299C7.60376 5.78542 8.54342 5.28325 9.56675 5.07971C10.5893 4.87625 11.6496 4.98068 12.6134 5.37979C13.5772 5.77899 14.401 6.45485 14.9803 7.32211C15.5595 8.18929 15.8692 9.20883 15.8692 10.2519C15.8676 11.6499 15.3109 12.9904 14.323 13.9791C13.3343 14.9677 11.9939 15.5238 10.5957 15.5252ZM16.4549 6.15284C16.1066 6.15284 15.7671 6.0497 15.4783 5.85654C15.1886 5.66338 14.9634 5.3888 14.8306 5.06756C14.6971 4.74633 14.6625 4.39283 14.7301 4.0518C14.7984 3.71077 14.9658 3.39749 15.2112 3.15164C15.4573 2.90578 15.7703 2.73836 16.1114 2.67046C16.4525 2.60264 16.8065 2.63748 17.1275 2.77054C17.4485 2.90361 17.7236 3.12895 17.9167 3.41801C18.1098 3.70715 18.2128 4.04705 18.2128 4.39476C18.212 4.86089 18.0269 5.30787 17.6971 5.63748C17.368 5.96708 16.9207 6.15244 16.4549 6.15284Z" fill="white"/>
<path d="M10.5947 7.59699C10.0697 7.59699 9.55615 7.75272 9.1197 8.04443C8.68274 8.33619 8.34264 8.75081 8.14161 9.23595C7.94057 9.7211 7.88797 10.2549 7.99057 10.77C8.09317 11.285 8.34576 11.7581 8.71711 12.1294C9.08845 12.5006 9.56135 12.7535 10.0764 12.856C10.5915 12.9584 11.1254 12.9058 11.6108 12.7049C12.0957 12.5039 12.5102 12.1636 12.8019 11.727C13.0941 11.2904 13.2498 10.7771 13.2498 10.252C13.2487 9.54808 12.9685 8.87331 12.4712 8.37556C11.9733 7.87787 11.2983 7.59783 10.5947 7.59699Z" fill="white"/>
</svg>
