<svg width="14" height="21" viewBox="0 0 14 21" fill="none" xmlns="http://www.w3.org/2000/svg">
<path d="M6.9396 11.1056C8.009 11.1056 9.05425 10.7885 9.94385 10.1943C10.8328 9.60019 11.5258 8.75567 11.9351 7.76765C12.3443 6.77963 12.4516 5.69245 12.243 4.64351C12.0343 3.59464 11.5191 2.63118 10.763 1.87502C10.0069 1.11879 9.04352 0.603813 7.99425 0.395166C6.94565 0.186519 5.8588 0.293593 4.87058 0.702904C3.88236 1.11215 3.0377 1.80518 2.44396 2.69438C1.84955 3.58357 1.53223 4.62902 1.53223 5.69842C1.53223 7.13252 2.10248 8.50784 3.11619 9.5219C4.13058 10.5359 5.50591 11.1056 6.9396 11.1056ZM6.9396 2.78703C7.51523 2.78703 8.0781 2.95777 8.55712 3.27771C9.03613 3.5976 9.40915 4.05233 9.62921 4.58427C9.84993 5.11629 9.90762 5.70164 9.79491 6.2664C9.68287 6.83115 9.4058 7.34995 8.99857 7.75712C8.59134 8.16428 8.07274 8.44156 7.50785 8.55387C6.94296 8.66624 6.35727 8.60855 5.82526 8.38822C5.29324 8.16784 4.83904 7.79469 4.51903 7.31594C4.19901 6.83713 4.02794 6.27425 4.02794 5.69842C4.02794 5.31601 4.10375 4.93737 4.25 4.58407C4.39626 4.23078 4.61027 3.90976 4.88064 3.63939C5.15101 3.36896 5.47237 3.15447 5.82526 3.00808C6.17882 2.86176 6.5572 2.78642 6.9396 2.78642V2.78703Z" fill="white"/>
<path d="M12.2363 13.6678C12.5254 13.4775 12.7636 13.2183 12.928 12.9134C13.093 12.6086 13.1795 12.2676 13.1795 11.9211C13.1842 11.6347 13.1064 11.353 12.9568 11.109C12.8065 10.865 12.5898 10.6688 12.3329 10.5432C12.0685 10.4112 11.7727 10.3559 11.4782 10.3835C11.1843 10.4111 10.9039 10.5206 10.6691 10.6996C9.58558 11.4891 8.28002 11.9145 6.93959 11.9145C5.59982 11.9145 4.29426 11.4891 3.21078 10.6996C2.97596 10.5215 2.69553 10.4126 2.40167 10.385C2.10782 10.3573 1.81197 10.4122 1.54697 10.5432C1.29002 10.6689 1.07466 10.8649 0.924377 11.1085C0.774768 11.3521 0.696945 11.6333 0.700299 11.9193C0.70097 12.2657 0.787515 12.6064 0.951883 12.9113C1.11692 13.2161 1.35375 13.4754 1.6429 13.666C2.39631 14.1672 3.21682 14.5593 4.08025 14.8307C4.22651 14.8761 4.37813 14.9184 4.53377 14.9574L2.01995 17.4153C1.85893 17.5665 1.73012 17.7481 1.64022 17.9497C1.55032 18.1512 1.50135 18.3686 1.49598 18.5893C1.49128 18.8099 1.5302 19.0293 1.6107 19.2348C1.69121 19.4403 1.81197 19.6276 1.9656 19.786C2.11923 19.9444 2.30306 20.0706 2.50567 20.1574C2.70828 20.2441 2.92699 20.2896 3.14772 20.2912C3.36844 20.2928 3.58715 20.2505 3.7911 20.1667C3.99505 20.083 4.18088 19.9594 4.33653 19.8033L4.37678 19.7624L6.93891 17.1103L9.5091 19.7683C9.81771 20.0776 10.2357 20.253 10.6724 20.2567C11.1092 20.2604 11.5305 20.092 11.8445 19.788C12.1578 19.4839 12.3396 19.0686 12.3496 18.6317C12.3597 18.1949 12.198 17.7716 11.8988 17.4532L11.8579 17.4124L9.34741 14.9568C9.50373 14.9174 9.65535 14.8749 9.80227 14.8296C10.6644 14.5591 11.4835 14.168 12.2363 13.6678Z" fill="white"/>
</svg>
