<svg width="21" height="21" viewBox="0 0 21 21" fill="none" xmlns="http://www.w3.org/2000/svg">
<path d="M4.20478 0.773679C6.36379 0.20379 8.62245 0.337492 10.8325 0.29731C10.7025 2.38791 10.8261 4.54318 10.1341 6.55206C9.863 7.31314 9.40617 7.99456 8.80502 8.5344C8.20388 9.07431 7.47757 9.45572 6.69226 9.64396C4.81867 10.09 2.87651 10.1273 0.959077 10.14C1.02047 7.80457 0.853851 5.39251 1.58654 3.1387C1.9493 1.93618 3.00409 1.06644 4.20159 0.773042L4.20478 0.773679ZM11.1107 0.302254C13.4164 0.338848 15.7883 0.179154 18.0207 0.865206C18.5851 1.03351 19.0978 1.34078 19.5124 1.75871C19.9277 2.17672 20.2307 2.69207 20.3942 3.25758C21.0671 5.48117 20.9307 7.84189 20.957 10.1372C19.0388 10.1238 17.0927 10.0907 15.2215 9.63407C13.6038 9.24779 12.2421 7.99807 11.7398 6.41278C11.1171 4.4369 11.2239 2.34143 11.1107 0.299463V0.302254ZM0.961486 10.4404C2.66765 10.4503 4.38177 10.532 6.0672 10.8071C7.73111 11.0618 9.34398 12.0849 10.0017 13.6786C10.8771 15.7678 10.6587 18.08 10.8405 20.2852C8.84489 20.2634 6.8294 20.3317 4.85456 19.9672C3.73439 19.7526 2.54645 19.2635 1.95647 18.2228C1.19348 16.8754 1.11215 15.2844 1.02046 13.7722C1.00771 12.6611 0.937549 11.5515 0.962264 10.4404H0.961486ZM15.5093 10.8816C17.2999 10.5235 19.1353 10.4651 20.957 10.4468C20.9307 12.7421 21.0695 15.1029 20.3942 17.3264C20.2291 17.8897 19.9262 18.4029 19.5124 18.8199C19.0994 19.237 18.5891 19.5446 18.0271 19.7152C15.7915 20.4035 13.4149 20.2465 11.106 20.2831C11.2128 18.1926 11.106 16.0373 11.7892 14.0284C12.3425 12.4008 13.8382 11.2046 15.5093 10.8816Z" fill="white"/>
</svg>
