<svg width="21" height="15" viewBox="0 0 21 15" fill="none" xmlns="http://www.w3.org/2000/svg">
<path d="M19.7409 2.44604C19.6277 2.02059 19.4051 1.63224 19.0948 1.31989C18.7845 1.00762 18.3977 0.7823 17.9727 0.666491C16.4128 0.245758 10.1592 0.245758 10.1592 0.245758C10.1592 0.245758 3.90477 0.245758 2.34567 0.666491C1.92066 0.7823 1.5339 1.00762 1.22358 1.31989C0.913256 1.63224 0.690634 2.02059 0.57745 2.44604C0.15919 4.01594 0.15918 7.29126 0.15918 7.29126C0.15918 7.29126 0.15919 10.5666 0.57745 12.1365C0.690634 12.5619 0.913256 12.9503 1.22358 13.2625C1.5339 13.5749 1.92066 13.8002 2.34567 13.916C3.90552 14.3368 10.1592 14.3368 10.1592 14.3368C10.1592 14.3368 16.4136 14.3368 17.9727 13.916C18.3977 13.8002 18.7845 13.5749 19.0948 13.2625C19.4051 12.9503 19.6277 12.5619 19.7409 12.1365C20.1592 10.5666 20.1592 7.29126 20.1592 7.29126C20.1592 7.29126 20.1592 4.01594 19.7409 2.44604ZM8.1136 10.2649V4.31757L13.3403 7.29455L8.1136 10.2649Z" fill="white"/>
</svg>
