<svg width="21" height="21" viewBox="0 0 21 21" fill="none" xmlns="http://www.w3.org/2000/svg">
<path d="M20.4531 10.352C20.453 8.4292 19.9052 6.54674 18.8748 4.92742C17.8442 3.3081 16.3742 2.0198 14.6387 1.21501C12.9032 0.410213 10.9748 0.122638 9.08178 0.386298C7.18888 0.650033 5.41062 1.45386 3.95765 2.70287C2.50469 3.9518 1.43785 5.59348 0.883351 7.43353C0.328857 9.27366 0.30996 11.2351 0.82895 13.0856C1.34794 14.9361 2.38304 16.5983 3.81165 17.8753C5.24033 19.1523 7.00272 19.9907 8.89023 20.2912V13.2604H6.34954V10.352H8.89023V8.13509C8.89023 5.61346 10.3834 4.22051 12.6688 4.22051C13.4191 4.23099 14.1677 4.29672 14.9085 4.41718V6.89366H13.6454C12.403 6.89366 12.0166 7.66904 12.0166 8.46678V10.354H14.7899L14.3463 13.2624H12.0154V20.2912C14.3675 19.9164 16.5095 18.7094 18.0562 16.8875C19.6029 15.0656 20.4528 12.7481 20.4531 10.352Z" fill="white"/>
</svg>
