<svg width="21" height="13" viewBox="0 0 21 13" fill="none" xmlns="http://www.w3.org/2000/svg">
<path fill-rule="evenodd" clip-rule="evenodd" d="M19.7477 1.16536C19.8963 0.699394 19.7477 0.360461 19.0912 0.360461H16.9097C16.3589 0.360461 16.1048 0.656999 15.9565 0.974772C15.9565 0.974772 14.8339 3.68594 13.2665 5.444C12.7581 5.95237 12.5252 6.1218 12.2498 6.1218C12.1015 6.1218 11.9108 5.95237 11.9108 5.4864V1.1442C11.9108 0.593444 11.7414 0.339302 11.2755 0.339302H7.84403C7.50517 0.339302 7.29334 0.593445 7.29334 0.847664C7.29334 1.37719 8.07701 1.50429 8.16173 2.98698V6.20651C8.16173 6.90554 8.03469 7.03265 7.75931 7.03265C7.01797 7.03265 5.21758 4.30025 4.1373 1.1866C3.92548 0.572286 3.71366 0.339302 3.16298 0.339302H0.960095C0.324624 0.339302 0.21875 0.63584 0.21875 0.953538C0.21875 1.52545 0.960098 4.40612 3.67134 8.2188C5.47172 10.8241 8.03469 12.2221 10.3434 12.2221C11.7414 12.2221 11.9108 11.9043 11.9108 11.3748V9.40495C11.9108 8.76948 12.038 8.6636 12.4828 8.6636C12.8005 8.6636 13.3724 8.83303 14.6644 10.0827C16.1471 11.5654 16.4013 12.2432 17.2274 12.2432H19.4093C20.0449 12.2432 20.3412 11.9255 20.1717 11.3112C19.9811 10.697 19.2607 9.80736 18.3288 8.74832C17.8208 8.15524 17.0579 7.49861 16.825 7.18091C16.5072 6.75727 16.592 6.58784 16.825 6.20651C16.8037 6.20651 19.4723 2.43623 19.7477 1.16536Z" fill="white"/>
</svg>
