<svg width="21" height="21" viewBox="0 0 21 21" fill="none" xmlns="http://www.w3.org/2000/svg">
<path d="M17.6247 0.291504H3.48469C2.70754 0.292469 1.96337 0.601399 1.41389 1.15063C0.864416 1.69979 0.555492 2.44444 0.554688 3.22111V17.3615C0.555492 18.1382 0.864416 18.8827 1.41389 19.432C1.96337 19.9812 2.70754 20.2901 3.48469 20.2911H17.6247C18.4018 20.2901 19.146 19.9812 19.6955 19.432C20.2441 18.8827 20.5531 18.1382 20.5547 17.3615V3.22111C20.5531 2.44444 20.2441 1.69979 19.6955 1.15063C19.146 0.601399 18.4018 0.292469 17.6247 0.291504ZM10.5957 15.5253C9.55228 15.5253 8.53297 15.216 7.66571 14.6366C6.79846 14.0572 6.12267 13.2335 5.72364 12.2699C5.3246 11.3063 5.22002 10.246 5.42355 9.22312C5.62709 8.20011 6.1291 7.26053 6.86683 6.52304C7.60376 5.78547 8.54342 5.2833 9.56675 5.07976C10.5893 4.8763 11.6496 4.98072 12.6134 5.37984C13.5772 5.77903 14.401 6.4549 14.9803 7.32216C15.5595 8.18933 15.8692 9.20888 15.8692 10.2519C15.8676 11.65 15.3109 12.9905 14.323 13.9791C13.3343 14.9678 11.9939 15.5238 10.5957 15.5253ZM16.4549 6.15289C16.1066 6.15289 15.7671 6.04975 15.4783 5.85659C15.1886 5.66343 14.9634 5.38885 14.8306 5.06761C14.6971 4.74637 14.6625 4.39287 14.7301 4.05184C14.7984 3.71081 14.9658 3.39754 15.2112 3.15168C15.4573 2.90582 15.7703 2.73841 16.1114 2.67051C16.4525 2.60269 16.8065 2.63752 17.1275 2.77059C17.4485 2.90365 17.7236 3.12899 17.9167 3.41805C18.1098 3.70719 18.2128 4.0471 18.2128 4.3948C18.212 4.86093 18.0269 5.30792 17.6971 5.63752C17.368 5.96713 16.9207 6.15248 16.4549 6.15289Z" fill="#16345F"/>
<path d="M10.5947 7.59692C10.0697 7.59692 9.55615 7.75265 9.1197 8.04436C8.68274 8.33612 8.34264 8.75074 8.14161 9.23589C7.94057 9.72103 7.88797 10.2549 7.99057 10.7699C8.09317 11.2849 8.34576 11.758 8.71711 12.1293C9.08845 12.5006 9.56135 12.7534 10.0764 12.8559C10.5915 12.9583 11.1254 12.9058 11.6108 12.7048C12.0957 12.5039 12.5102 12.1636 12.8019 11.727C13.0941 11.2904 13.2498 10.777 13.2498 10.2519C13.2487 9.54801 12.9685 8.87324 12.4712 8.37549C11.9733 7.8778 11.2983 7.59776 10.5947 7.59692Z" fill="#16345F"/>
</svg>
