<svg width="14" height="21" viewBox="0 0 14 21" fill="none" xmlns="http://www.w3.org/2000/svg">
<path d="M6.93863 11.1056C8.00803 11.1056 9.05327 10.7885 9.94287 10.1943C10.8318 9.60019 11.5248 8.75567 11.9341 7.76765C12.3433 6.77963 12.4507 5.69245 12.242 4.64351C12.0334 3.59464 11.5181 2.63118 10.762 1.87502C10.0059 1.11879 9.04254 0.603813 7.99327 0.395166C6.94467 0.186519 5.85782 0.293593 4.8696 0.702904C3.88138 1.11215 3.03672 1.80518 2.44299 2.69438C1.84858 3.58357 1.53125 4.62902 1.53125 5.69842C1.53125 7.13252 2.1015 8.50784 3.11522 9.5219C4.1296 10.5359 5.50493 11.1056 6.93863 11.1056ZM6.93863 2.78703C7.51425 2.78703 8.07713 2.95777 8.55614 3.27771C9.03516 3.5976 9.40818 4.05233 9.62823 4.58427C9.84895 5.11629 9.90665 5.70164 9.79394 6.2664C9.6819 6.83115 9.40482 7.34995 8.99759 7.75712C8.59036 8.16428 8.07176 8.44156 7.50687 8.55387C6.94198 8.66624 6.3563 8.60855 5.82428 8.38822C5.29226 8.16784 4.83807 7.79469 4.51805 7.31594C4.19804 6.83713 4.02696 6.27425 4.02696 5.69842C4.02696 5.31601 4.10277 4.93737 4.24902 4.58407C4.39528 4.23078 4.60929 3.90976 4.87966 3.63939C5.15003 3.36896 5.47139 3.15447 5.82428 3.00808C6.17784 2.86176 6.55622 2.78642 6.93863 2.78642V2.78703Z" fill="#16345F"/>
<path d="M12.2353 13.6677C12.5244 13.4773 12.7626 13.2182 12.927 12.9133C13.092 12.6085 13.1786 12.2675 13.1786 11.921C13.1833 11.6346 13.1054 11.3529 12.9558 11.1089C12.8055 10.8649 12.5889 10.6687 12.3319 10.5431C12.0676 10.4111 11.7717 10.3558 11.4772 10.3834C11.1833 10.411 10.9029 10.5205 10.6681 10.6995C9.58461 11.489 8.27905 11.9144 6.93861 11.9144C5.59884 11.9144 4.29329 11.489 3.2098 10.6995C2.97499 10.5214 2.69455 10.4124 2.4007 10.3849C2.10685 10.3572 1.81099 10.412 1.54599 10.5431C1.28904 10.6688 1.07368 10.8648 0.9234 11.1084C0.773791 11.352 0.695968 11.6332 0.699323 11.9192C0.699994 12.2656 0.786539 12.6063 0.950907 12.9112C1.11595 13.216 1.35277 13.4753 1.64192 13.6659C2.39533 14.1671 3.21584 14.5592 4.07928 14.8306C4.22553 14.876 4.37715 14.9183 4.5328 14.9573L2.01897 17.4152C1.85796 17.5664 1.72914 17.748 1.63924 17.9496C1.54934 18.1511 1.50037 18.3685 1.495 18.5892C1.49031 18.8098 1.52922 19.0292 1.60973 19.2347C1.69023 19.4402 1.81099 19.6275 1.96462 19.7859C2.11826 19.9443 2.30209 20.0705 2.5047 20.1573C2.7073 20.244 2.92602 20.2895 3.14674 20.2911C3.36746 20.2927 3.58617 20.2504 3.79012 20.1666C3.99407 20.0829 4.1799 19.9593 4.33555 19.8032L4.3758 19.7623L6.93793 17.1102L9.50812 19.7682C9.81673 20.0775 10.2347 20.2529 10.6714 20.2566C11.1082 20.2603 11.5295 20.0919 11.8435 19.7879C12.1568 19.4838 12.3386 19.0685 12.3487 18.6316C12.3587 18.1948 12.197 17.7715 11.8978 17.4531L11.8569 17.4123L9.34644 14.9567C9.50276 14.9173 9.65437 14.8748 9.8013 14.8295C10.6634 14.559 11.4826 14.1679 12.2353 13.6677Z" fill="#16345F"/>
</svg>
