<svg width="21" height="21" viewBox="0 0 21 21" fill="none" xmlns="http://www.w3.org/2000/svg">
<path d="M4.20478 0.773733C6.36379 0.203843 8.62245 0.337546 10.8325 0.297363C10.7025 2.38797 10.8261 4.54323 10.1341 6.55211C9.863 7.31319 9.40617 7.99462 8.80502 8.53445C8.20388 9.07436 7.47757 9.45578 6.69226 9.64401C4.81867 10.0901 2.87651 10.1274 0.959077 10.1401C1.02047 7.80463 0.853851 5.39256 1.58654 3.13876C1.9493 1.93623 3.00409 1.06649 4.20159 0.773095L4.20478 0.773733ZM11.1107 0.302307C13.4164 0.338902 15.7883 0.179207 18.0207 0.865259C18.5851 1.03356 19.0978 1.34083 19.5124 1.75876C19.9277 2.17677 20.2307 2.69213 20.3942 3.25763C21.0671 5.48122 20.9307 7.84194 20.957 10.1373C19.0388 10.1239 17.0927 10.0908 15.2215 9.63412C13.6038 9.24785 12.2421 7.99812 11.7398 6.41283C11.1171 4.43695 11.2239 2.34149 11.1107 0.299517V0.302307ZM0.961486 10.4405C2.66765 10.4504 4.38177 10.532 6.0672 10.8071C7.73111 11.0619 9.34398 12.0849 10.0017 13.6787C10.8771 15.7678 10.6587 18.08 10.8405 20.2853C8.84489 20.2635 6.8294 20.3317 4.85456 19.9672C3.73439 19.7526 2.54645 19.2636 1.95647 18.2229C1.19348 16.8754 1.11215 15.2845 1.02046 13.7723C1.00771 12.6612 0.937549 11.5516 0.962264 10.4405H0.961486ZM15.5093 10.8817C17.2999 10.5236 19.1353 10.4651 20.957 10.4469C20.9307 12.7421 21.0695 15.1029 20.3942 17.3264C20.2291 17.8897 19.9262 18.403 19.5124 18.82C19.0994 19.237 18.5891 19.5447 18.0271 19.7153C15.7915 20.4035 13.4149 20.2466 11.106 20.2832C11.2128 18.1927 11.106 16.0373 11.7892 14.0284C12.3425 12.4009 13.8382 11.2047 15.5093 10.8817Z" fill="#16345F"/>
</svg>
