<svg width="21" height="15" viewBox="0 0 21 15" fill="none" xmlns="http://www.w3.org/2000/svg">
<path d="M19.7399 2.44613C19.6267 2.02068 19.4041 1.63233 19.0938 1.31998C18.7835 1.00771 18.3967 0.782391 17.9717 0.666583C16.4119 0.24585 10.1582 0.24585 10.1582 0.24585C10.1582 0.24585 3.90379 0.24585 2.34469 0.666583C1.91968 0.782391 1.53292 1.00771 1.2226 1.31998C0.912279 1.63233 0.689658 2.02068 0.576473 2.44613C0.158214 4.01603 0.158203 7.29135 0.158203 7.29135C0.158203 7.29135 0.158214 10.5667 0.576473 12.1366C0.689658 12.562 0.912279 12.9504 1.2226 13.2626C1.53292 13.575 1.91968 13.8003 2.34469 13.9161C3.90454 14.3368 10.1582 14.3368 10.1582 14.3368C10.1582 14.3368 16.4126 14.3368 17.9717 13.9161C18.3967 13.8003 18.7835 13.575 19.0938 13.2626C19.4041 12.9504 19.6267 12.562 19.7399 12.1366C20.1582 10.5667 20.1582 7.29135 20.1582 7.29135C20.1582 7.29135 20.1582 4.01603 19.7399 2.44613ZM8.11263 10.265V4.31766L13.3394 7.29465L8.11263 10.265Z" fill="#16345F"/>
</svg>
