<svg width="21" height="21" viewBox="0 0 21 21" fill="none" xmlns="http://www.w3.org/2000/svg">
<path d="M20.4531 10.352C20.453 8.42922 19.9052 6.54676 18.8748 4.92744C17.8442 3.30812 16.3742 2.01982 14.6387 1.21502C12.9032 0.410228 10.9748 0.122653 9.08178 0.386313C7.18888 0.650048 5.41062 1.45388 3.95765 2.70288C2.50469 3.95182 1.43785 5.59349 0.883351 7.43355C0.328857 9.27367 0.30996 11.2351 0.82895 13.0856C1.34794 14.9361 2.38304 16.5983 3.81165 17.8753C5.24033 19.1523 7.00272 19.9908 8.89023 20.2913V13.2604H6.34954V10.352H8.89023V8.13511C8.89023 5.61347 10.3834 4.22053 12.6688 4.22053C13.4191 4.231 14.1677 4.29673 14.9085 4.4172V6.89367H13.6454C12.403 6.89367 12.0166 7.66906 12.0166 8.4668V10.354H14.7899L14.3463 13.2624H12.0154V20.2913C14.3675 19.9164 16.5095 18.7094 18.0562 16.8875C19.6029 15.0656 20.4528 12.7481 20.4531 10.352Z" fill="#16345F"/>
</svg>
