<svg width="24" height="24" viewBox="0 0 24 24" fill="none" xmlns="http://www.w3.org/2000/svg">
<path d="M12.5094 4.3825C15.5394 3.2925 18.9119 4.795 20.1119 7.81L23.0719 15.2425C24.2969 18.32 22.7969 21.81 19.7169 23.0375C16.6394 24.2625 13.1494 22.7625 11.9219 19.6825L10.7969 16.8575" stroke="#DBC493" stroke-width="1.5" stroke-miterlimit="10" stroke-linecap="round" stroke-linejoin="round"/>
<path d="M7.595 4.07C5.2375 4.08 3.0075 5.4875 2.0625 7.8075C1.225 9.86251 1.615 12.11 2.8825 13.7475L0.5 19.59L2.145 23.5L6.055 21.855L5.5075 20.55L6.81 20.0025L6.2625 18.7L7.565 18.1525L8.4375 16.015C10.4875 15.73 12.3375 14.395 13.175 12.34C14.425 9.27251 12.9525 5.77 9.8825 4.52C9.6225 4.4125 9.3575 4.3275 9.0925 4.26" stroke="#DBC493" stroke-width="1.5" stroke-miterlimit="10" stroke-linecap="round" stroke-linejoin="round"/>
<path d="M9.40089 9.78396C9.71362 9.01683 9.34527 8.14144 8.57814 7.82871C7.81102 7.51597 6.93562 7.88433 6.62289 8.65146C6.31016 9.41858 6.67852 10.294 7.44564 10.6067C8.21276 10.9194 9.08816 10.5511 9.40089 9.78396Z" stroke="#DBC493" stroke-width="1.5" stroke-miterlimit="10" stroke-linecap="round" stroke-linejoin="round"/>
<path d="M8.4675 7.79C7.8625 7.0225 7.5 6.0525 7.5 5C7.5 2.515 9.515 0.500004 12 0.500004C14.2625 0.500004 16.135 2.17 16.4525 4.345" stroke="#DBC493" stroke-width="1.5" stroke-miterlimit="10" stroke-linecap="round" stroke-linejoin="round"/>
</svg>
