<svg width="26" height="24" viewBox="0 0 26 24" fill="none" xmlns="http://www.w3.org/2000/svg">
<g clip-path="url(#clip0)">
<path d="M5.99966 5C6.56197 5 6.99932 4.65625 6.99932 4.25V0.75C7.02014 0.34375 6.56197 0 5.99966 0C5.43735 0 5 0.34375 5 0.75V4.25C5 4.67188 5.43735 5 5.99966 5Z" fill="#DBC493"/>
<path d="M17 2H8V3H17V2Z" fill="#DBC493"/>
<path d="M22.127 24C23.7064 24 25 22.6741 25 21.0554V4.94475C25 3.32598 23.7064 2.00013 22.127 2.00013H20.2316V3.49557H22.127C22.9091 3.49557 23.5409 4.14308 23.5409 4.94475V7.50395H1.45909V4.94475C1.45909 4.14308 2.09085 3.49557 2.87304 3.49557H4.76835V2.00013H2.87304C1.29362 1.98472 0 3.31057 0 4.94475V21.0554C0 22.6741 1.29362 24 2.87304 24H22.127ZM1.45909 21.04V8.98397H23.5409V21.0554C23.5409 21.8571 22.9091 22.5046 22.127 22.5046H2.87304C2.09085 22.5046 1.45909 21.8416 1.45909 21.04Z" fill="#DBC493"/>
<path d="M19.0003 5C19.5626 5 20 4.65625 20 4.25V0.75C20 0.328125 19.5418 0 19.0003 0C18.438 0 18.0007 0.34375 18.0007 0.75V4.25C17.9799 4.67188 18.438 5 19.0003 5Z" fill="#DBC493"/>
<g filter="url(#filter0_d)">
<path d="M8.99773 15.3469C9.33107 15.4669 9.58773 15.6803 9.76773 15.9869C9.9544 16.2869 10.0477 16.6769 10.0477 17.1569C10.0477 17.7969 9.89107 18.3036 9.57773 18.6769C9.27107 19.0436 8.8044 19.2269 8.17773 19.2269C7.93107 19.2269 7.69107 19.1903 7.45773 19.1169C7.2244 19.0436 7.02107 18.9469 6.84773 18.8269L7.07773 18.1269C7.23107 18.2203 7.39107 18.3003 7.55773 18.3669C7.73107 18.4336 7.91107 18.4669 8.09773 18.4669C8.43773 18.4669 8.70107 18.3636 8.88773 18.1569C9.08107 17.9436 9.17773 17.6069 9.17773 17.1469C9.17773 16.6869 9.07107 16.3403 8.85773 16.1069C8.65107 15.8736 8.31773 15.7569 7.85773 15.7569H7.59773V15.0269H7.81773C8.21773 15.0269 8.5144 14.9203 8.70773 14.7069C8.90107 14.4936 8.99773 14.1969 8.99773 13.8169C8.99773 13.4569 8.92107 13.1903 8.76773 13.0169C8.6144 12.8369 8.41107 12.7469 8.15773 12.7469C7.9844 12.7469 7.81773 12.7803 7.65773 12.8469C7.5044 12.9136 7.37107 12.9969 7.25773 13.0969L6.91773 12.4669C7.09107 12.3069 7.2944 12.1869 7.52773 12.1069C7.76773 12.0269 8.0044 11.9869 8.23773 11.9869C8.75773 11.9869 9.15773 12.1503 9.43773 12.4769C9.71773 12.8036 9.85773 13.2369 9.85773 13.7769C9.85773 14.1569 9.78107 14.4803 9.62773 14.7469C9.48107 15.0069 9.27107 15.2069 8.99773 15.3469ZM14.2046 12.8269C13.9513 12.8603 13.7179 12.9169 13.5046 12.9969C13.2979 13.0703 13.1113 13.1903 12.9446 13.3569C12.7779 13.5169 12.6379 13.7303 12.5246 13.9969C12.4179 14.2636 12.3379 14.5969 12.2846 14.9969C12.4246 14.9369 12.5579 14.8936 12.6846 14.8669C12.8179 14.8403 12.9413 14.8269 13.0546 14.8269C13.5346 14.8269 13.9046 15.0169 14.1646 15.3969C14.4313 15.7703 14.5646 16.2869 14.5646 16.9469C14.5646 17.6536 14.4379 18.2103 14.1846 18.6169C13.9379 19.0236 13.5446 19.2269 13.0046 19.2269C12.7313 19.2269 12.4913 19.1736 12.2846 19.0669C12.0779 18.9603 11.9046 18.7869 11.7646 18.5469C11.6313 18.3003 11.5279 17.9803 11.4546 17.5869C11.3879 17.1869 11.3546 16.7003 11.3546 16.1269C11.3546 15.6269 11.4013 15.1403 11.4946 14.6669C11.5946 14.1936 11.7513 13.7736 11.9646 13.4069C12.1846 13.0336 12.4679 12.7303 12.8146 12.4969C13.1679 12.2636 13.6013 12.1369 14.1146 12.1169L14.2046 12.8269ZM12.8446 15.5269C12.7379 15.5269 12.6313 15.5469 12.5246 15.5869C12.4179 15.6203 12.3179 15.6636 12.2246 15.7169C12.2179 15.7969 12.2146 15.8803 12.2146 15.9669C12.2146 16.0469 12.2146 16.1303 12.2146 16.2169C12.2146 16.5236 12.2213 16.8169 12.2346 17.0969C12.2546 17.3703 12.2913 17.6136 12.3446 17.8269C12.3979 18.0336 12.4746 18.2003 12.5746 18.3269C12.6813 18.4469 12.8213 18.5069 12.9946 18.5069C13.2546 18.5069 13.4346 18.3703 13.5346 18.0969C13.6413 17.8169 13.6946 17.4469 13.6946 16.9869C13.6946 16.4869 13.6246 16.1203 13.4846 15.8869C13.3513 15.6469 13.1379 15.5269 12.8446 15.5269ZM16.9315 12.8969C16.8982 13.3769 16.8748 13.7769 16.8615 14.0969C16.8482 14.4169 16.8348 14.6703 16.8215 14.8569C17.4482 14.9436 17.9082 15.1703 18.2015 15.5369C18.4948 15.9036 18.6415 16.4003 18.6415 17.0269C18.6415 17.3803 18.5915 17.6936 18.4915 17.9669C18.3915 18.2403 18.2515 18.4703 18.0715 18.6569C17.8982 18.8436 17.6915 18.9836 17.4515 19.0769C17.2115 19.1769 16.9515 19.2269 16.6715 19.2269C16.4782 19.2269 16.2815 19.2003 16.0815 19.1469C15.8815 19.0936 15.6948 19.0169 15.5215 18.9169L15.7615 18.2069C16.0482 18.3669 16.3415 18.4469 16.6415 18.4469C16.9615 18.4469 17.2315 18.3303 17.4515 18.0969C17.6715 17.8636 17.7815 17.5069 17.7815 17.0269C17.7815 16.5003 17.6315 16.1236 17.3315 15.8969C17.0382 15.6636 16.5882 15.5336 15.9815 15.5069C16.0148 15.1736 16.0415 14.8703 16.0615 14.5969C16.0815 14.3169 16.0982 14.0469 16.1115 13.7869C16.1248 13.5203 16.1348 13.2569 16.1415 12.9969C16.1548 12.7303 16.1648 12.4469 16.1715 12.1469H18.5115V12.8969H16.9315Z" fill="#DBC493"/>
</g>
</g>
<defs>
<filter id="filter0_d" x="-3.15234" y="1.98692" width="31.7937" height="27.24" filterUnits="userSpaceOnUse" color-interpolation-filters="sRGB">
<feFlood flood-opacity="0" result="BackgroundImageFix"/>
<feColorMatrix in="SourceAlpha" type="matrix" values="0 0 0 0 0 0 0 0 0 0 0 0 0 0 0 0 0 0 127 0"/>
<feOffset/>
<feGaussianBlur stdDeviation="5"/>
<feColorMatrix type="matrix" values="0 0 0 0 0.0313726 0 0 0 0 0.231373 0 0 0 0 0.341176 0 0 0 0.4 0"/>
<feBlend mode="normal" in2="BackgroundImageFix" result="effect1_dropShadow"/>
<feBlend mode="normal" in="SourceGraphic" in2="effect1_dropShadow" result="shape"/>
</filter>
<clipPath id="clip0">
<rect width="26" height="24" fill="white"/>
</clipPath>
</defs>
</svg>
