<svg width="36" height="29" viewBox="0 0 36 29" fill="none" xmlns="http://www.w3.org/2000/svg">
<path d="M9.63478 19.7206H5.18257C4.8327 19.7206 4.53906 20.0093 4.53906 20.3611C4.53906 20.713 4.8327 21.0016 5.18257 21.0016H9.63478C9.98465 21.0016 10.2783 20.713 10.2783 20.3611C10.2783 20.0093 9.98466 19.7206 9.63478 19.7206Z" fill="#DBC493" stroke="#DBC493" stroke-width="0.5"/>
<path d="M7.5242 15.8873C7.5242 15.5354 7.23057 15.2468 6.8807 15.2468H0.393504C0.0436341 15.2468 -0.25 15.5354 -0.25 15.8873C-0.25 16.2391 0.0436341 16.5277 0.393504 16.5277H6.8807C7.23057 16.5277 7.5242 16.2391 7.5242 15.8873Z" fill="#DBC493" stroke="#DBC493" stroke-width="0.5"/>
<path d="M9.8148 10.7617H6.38569C6.03582 10.7617 5.74219 11.0504 5.74219 11.4022C5.74219 11.7541 6.03582 12.0427 6.38569 12.0427H9.80356C10.1512 12.0427 10.4434 11.7577 10.447 11.4088C10.4624 11.0471 10.1596 10.7617 9.8148 10.7617Z" fill="#DBC493" stroke="#DBC493" stroke-width="0.5"/>
<path d="M2.05757 7.56885H2.90079C3.25066 7.56885 3.54429 7.28022 3.54429 6.92836C3.54429 6.5765 3.25066 6.28788 2.90079 6.28788H2.05757C1.7077 6.28788 1.41406 6.5765 1.41406 6.92836C1.41406 7.27555 1.69179 7.56885 2.05757 7.56885Z" fill="#DBC493" stroke="#DBC493" stroke-width="0.5"/>
<path d="M4.22749 7.56885H12.1088C12.4587 7.56885 12.7523 7.28022 12.7523 6.92836C12.7523 6.5765 12.4587 6.28788 12.1088 6.28788H4.22749C3.87762 6.28788 3.58398 6.5765 3.58398 6.92836C3.58398 7.27555 3.86171 7.56885 4.22749 7.56885Z" fill="#DBC493" stroke="#DBC493" stroke-width="0.5"/>
<path d="M12.1687 22.0407L12.1687 22.0408L12.1703 22.0438C14.2945 25.895 18.3587 28.287 22.7778 28.287C29.4349 28.287 34.8554 22.9109 34.8554 16.3001V16.2996C34.8439 9.68923 29.4238 4.31312 22.7665 4.31312C16.1093 4.31312 10.6889 9.68924 10.6889 16.3001C10.6889 17.4714 10.86 18.6146 11.1933 19.7206H10.9501C10.6003 19.7206 10.3066 20.0093 10.3066 20.3611C10.3066 20.713 10.6003 21.0016 10.9501 21.0016H12.0857H12.0969H16.5604C16.9103 21.0016 17.2039 20.713 17.2039 20.3611C17.2039 20.0093 16.9103 19.7206 16.5604 19.7206H12.555C12.1764 18.6165 11.9872 17.4734 11.9872 16.3001C11.9872 10.3931 16.8314 5.5941 22.7778 5.5941C28.735 5.5941 33.5683 10.404 33.5683 16.3001C33.5683 22.207 28.7241 27.006 22.7778 27.006C18.8323 27.006 15.1958 24.8687 13.3061 21.4246C13.135 21.1057 12.7334 21.007 12.4304 21.1662C12.1089 21.3351 12.0063 21.7364 12.1687 22.0407Z" fill="#DBC493" stroke="#DBC493" stroke-width="0.5"/>
<path d="M20.3574 2.56606C20.3574 2.92519 20.5621 3.22858 20.8521 3.3813V3.70405C20.8521 4.05591 21.1457 4.34454 21.4956 4.34454C21.8455 4.34454 22.1391 4.05591 22.1391 3.70405V2.84498C22.1391 2.54446 21.9249 2.29006 21.6444 2.22222V1.03097H23.9777V2.22222C23.6972 2.29006 23.483 2.54446 23.483 2.84498V3.72637C23.483 4.07823 23.7766 4.36685 24.1265 4.36685C24.4763 4.36685 24.77 4.07823 24.77 3.72637V3.3813C25.06 3.22858 25.2647 2.92519 25.2647 2.56606V0.669407C25.2647 0.161351 24.8474 -0.25 24.3401 -0.25H21.282C20.7747 -0.25 20.3574 0.161351 20.3574 0.669407V2.56606Z" fill="#DBC493" stroke="#DBC493" stroke-width="0.5"/>
<path d="M30.6072 6.23735L30.6077 6.23665L30.9107 5.85802C30.9108 5.85789 30.9109 5.85776 30.9111 5.85764C31.0787 5.6494 31.0875 5.38291 30.978 5.17151L31.1802 4.92413L32.3621 5.87077L32.1666 6.10536C32.0856 6.08397 32.003 6.08 31.9254 6.08855C31.7573 6.10709 31.5997 6.19611 31.4938 6.31867L31.4937 6.31855L31.4878 6.32588L31.1848 6.70451C31.1847 6.70465 31.1846 6.70478 31.1845 6.70491C30.9585 6.98565 31.0201 7.38681 31.2896 7.6024C31.4156 7.70561 31.5682 7.7362 31.6943 7.7362C31.8804 7.7362 32.0717 7.64809 32.1966 7.5065L32.204 7.49804L32.2107 7.48894L32.2135 7.48517C32.489 7.49628 32.7732 7.38448 32.965 7.15607L32.966 7.15495L33.5951 6.39681C33.7504 6.21162 33.8289 5.96432 33.7974 5.7145C33.7678 5.47993 33.6611 5.26001 33.4558 5.10237L31.7058 3.71084C31.3148 3.38724 30.7314 3.45343 30.4106 3.84647L29.7821 4.60377C29.6269 4.78896 29.5484 5.03626 29.5799 5.28609L29.5798 5.28609L29.5805 5.29046C29.5871 5.33658 29.5969 5.38382 29.6103 5.43071L29.6013 5.44166L29.6013 5.44165L29.5996 5.4438C29.3727 5.7252 29.435 6.12786 29.7062 6.34319C29.9877 6.56665 30.3904 6.50629 30.6072 6.23735Z" fill="#DBC493" stroke="#DBC493" stroke-width="0.5"/>
<path d="M23.5019 14.9026L23.502 14.9026L23.4974 14.9C23.1283 14.6907 22.6917 14.6247 22.2683 14.7298C21.8408 14.8358 21.4938 15.1022 21.27 15.4812L21.27 15.4812L21.2686 15.4836C21.0572 15.8506 20.9904 16.2853 21.0966 16.707C21.2039 17.1327 21.473 17.477 21.8542 17.6988L21.8554 17.6994C22.1046 17.8426 22.3833 17.9223 22.677 17.9223C22.8023 17.9223 22.9503 17.9103 23.0924 17.8686C23.3281 17.8069 23.5481 17.6906 23.7288 17.536L27.0489 19.4172C27.1357 19.4683 27.2458 19.5066 27.3653 19.5066C27.5776 19.5066 27.8046 19.4011 27.9219 19.176C28.103 18.8615 27.9841 18.4804 27.6825 18.3043L27.6825 18.3043L27.68 18.303L24.295 16.3773C24.3345 15.7951 24.0395 15.2227 23.5019 14.9026ZM22.8375 16.0105L22.8375 16.0105L22.8414 16.0128C23.0072 16.1115 23.0534 16.3171 22.9674 16.4634L22.9674 16.4634L22.9652 16.4673C22.8759 16.6254 22.6716 16.682 22.5126 16.5873C22.3469 16.4887 22.3006 16.2834 22.3863 16.1371C22.4524 16.026 22.5602 15.9699 22.677 15.9699C22.7417 15.9699 22.7949 15.984 22.8375 16.0105Z" fill="#DBC493" stroke="#DBC493" stroke-width="0.5"/>
<path d="M18.704 24.7662L18.7039 24.7664L18.7116 24.7701C19.9943 25.3893 21.3808 25.6986 22.8115 25.6986C28.0296 25.6986 32.2695 21.494 32.2695 16.3112C32.2695 11.1285 28.0296 6.92381 22.8115 6.92381C17.5934 6.92381 13.3535 11.1285 13.3535 16.3112C13.3535 16.6631 13.6471 16.9517 13.997 16.9517C14.3469 16.9517 14.6405 16.6631 14.6405 16.3112C14.6405 11.8433 18.3044 8.20479 22.8115 8.20479C27.3186 8.20479 30.9825 11.8433 30.9825 16.3112C30.9825 20.7791 27.3186 24.4176 22.8115 24.4176C21.5685 24.4176 20.3811 24.1477 19.269 23.6182C18.9538 23.456 18.5632 23.5849 18.4133 23.9159C18.2665 24.2289 18.3976 24.6053 18.704 24.7662Z" fill="#DBC493" stroke="#DBC493" stroke-width="0.5"/>
</svg>
