<svg width="25" height="23" viewBox="0 0 25 23" fill="none" xmlns="http://www.w3.org/2000/svg">
<path d="M17.6243 8.74583C16.1115 7.91844 14.3882 7.42885 12.5523 7.38479C12.4495 7.375 12.3466 7.375 12.2389 7.375C12.1312 7.375 12.0284 7.375 11.9256 7.38479C10.0897 7.42885 8.36633 7.91844 6.85352 8.74583" stroke="#DBC493" stroke-width="1.5" stroke-miterlimit="10" stroke-linecap="round" stroke-linejoin="round"/>
<path d="M18.6042 10.3125V12.2708C18.6042 12.8094 18.1635 13.25 17.625 13.25H17.6005C17.3557 15.9966 15.0498 18.1458 12.2396 18.1458C9.42938 18.1458 7.12344 15.9966 6.87865 13.25H6.85417C6.31563 13.25 5.875 12.8094 5.875 12.2708V10.3125C5.875 9.77396 6.31563 9.33333 6.85417 9.33333V2.87083C8.4551 1.99938 10.2861 1.5 12.2396 1.5C14.193 1.5 16.0241 1.99938 17.625 2.87083V9.33333C17.8943 9.33333 18.1391 9.44104 18.3153 9.62219C18.4965 9.79844 18.6042 10.0432 18.6042 10.3125Z" stroke="#DBC493" stroke-width="1.5" stroke-miterlimit="10" stroke-linecap="round" stroke-linejoin="round"/>
<path d="M6.85352 8.74583C8.45445 7.87438 10.2855 7.375 12.2389 7.375C14.1924 7.375 16.0234 7.87438 17.6243 8.74583" stroke="#DBC493" stroke-width="1.5" stroke-miterlimit="10" stroke-linecap="round" stroke-linejoin="round"/>
<path d="M6.85352 5.80833C8.45445 4.93688 10.2855 4.4375 12.2389 4.4375C14.1924 4.4375 16.0234 4.93688 17.6243 5.80833" stroke="#DBC493" stroke-width="1.5" stroke-miterlimit="10" stroke-linecap="round" stroke-linejoin="round"/>
<path d="M17.2383 19.8839L22.1855 21.6047C22.9738 21.8789 23.5001 22.6206 23.5001 23.4554V24.0208" stroke="#DBC493" stroke-width="1.5" stroke-miterlimit="10" stroke-linecap="round" stroke-linejoin="round"/>
<path d="M0.978516 24.0208V23.4554C0.978516 22.6206 1.50727 21.8789 2.29305 21.6047L7.24029 19.8839" stroke="#DBC493" stroke-width="1.5" stroke-miterlimit="10" stroke-linecap="round" stroke-linejoin="round"/>
<path d="M13.707 20.2878L16.7596 18.6354C17.1537 19.3624 17.3789 20.1972 17.3789 21.0833C17.3789 21.9695 17.1537 22.8042 16.7596 23.5312L15.1733 22.672" stroke="#DBC493" stroke-width="1.5" stroke-miterlimit="10" stroke-linecap="round" stroke-linejoin="round"/>
<path d="M9.30323 19.4946L7.71698 18.6354C7.32286 19.3624 7.09766 20.1972 7.09766 21.0833C7.09766 21.9695 7.32286 22.8042 7.71698 23.5312L10.7695 21.8789" stroke="#DBC493" stroke-width="1.5" stroke-miterlimit="10" stroke-linecap="round" stroke-linejoin="round"/>
<path d="M13.707 19.5779H10.7695V22.5912H13.707V19.5779Z" stroke="#DBC493" stroke-width="1.5" stroke-miterlimit="10" stroke-linecap="round" stroke-linejoin="round"/>
</svg>
