<svg width="23" height="19" viewBox="0 0 23 19" fill="none" xmlns="http://www.w3.org/2000/svg">
<mask id="path-1-outside-1" maskUnits="userSpaceOnUse" x="-0.998047" y="-1" width="25" height="21" fill="black">
<rect fill="white" x="-0.998047" y="-1" width="25" height="21"/>
<path d="M22.8997 5.41913L18.4908 0.165217V0.15971L18.4855 0.154203C18.4802 0.143188 18.4697 0.137681 18.4644 0.132174C18.4591 0.126667 18.4591 0.126667 18.4538 0.126667C18.4486 0.121159 18.438 0.115652 18.4327 0.110145C18.4274 0.104638 18.4274 0.104638 18.4222 0.0991304C18.4169 0.0936232 18.4063 0.0881159 18.401 0.0826087C18.3958 0.0771014 18.3905 0.0771014 18.3852 0.0715942C18.3799 0.0660869 18.3694 0.0660869 18.3641 0.0605797C18.3588 0.0550725 18.3535 0.0550725 18.3482 0.0550725C18.343 0.0550725 18.343 0.0495652 18.3377 0.0495652C18.3324 0.0495652 18.3324 0.0495652 18.3271 0.044058C18.3218 0.044058 18.3166 0.0385507 18.3113 0.0385507C18.306 0.0385507 18.2954 0.0330435 18.2902 0.0330435C18.2849 0.0330435 18.2796 0.0330435 18.2743 0.0275362C18.2638 0.0275362 18.2585 0.022029 18.2479 0.022029C18.2426 0.022029 18.2374 0.022029 18.2321 0.022029C18.2215 0.022029 18.211 0.022029 18.2057 0.022029C18.2004 0.022029 18.2004 0.022029 18.1951 0.022029H5.00549C4.92101 -0.00550725 4.82597 -0.0110145 4.73621 0.0275362C4.73093 0.0275362 4.73093 0.0330435 4.72565 0.0330435C4.64645 0.0495652 4.56725 0.0991304 4.51445 0.165217L0.100304 5.41913C-0.0316976 5.57884 -0.0316976 5.81014 0.105584 5.96985L11.2096 18.8678L11.2149 18.8733C11.2201 18.8788 11.2254 18.8843 11.2307 18.8899C11.2307 18.8899 11.236 18.8899 11.236 18.8954C11.2413 18.8954 11.2413 18.9009 11.2465 18.9009C11.2518 18.9064 11.2624 18.9119 11.2677 18.9174C11.2729 18.9229 11.2729 18.9229 11.2782 18.9229L11.2835 18.9284C11.2888 18.9339 11.2941 18.9339 11.2993 18.9394C11.3046 18.9449 11.3099 18.9449 11.3152 18.9504C11.3205 18.9559 11.3257 18.9559 11.331 18.9614C11.331 18.9614 11.3363 18.9614 11.3363 18.967C11.3416 18.967 11.3469 18.9725 11.3521 18.9725C11.3574 18.9725 11.3574 18.978 11.3627 18.978C11.368 18.978 11.368 18.978 11.3733 18.9835C11.3785 18.9835 11.3785 18.989 11.3838 18.989H11.3891C11.3944 18.989 11.4049 18.9945 11.4102 18.9945C11.4155 18.9945 11.4208 18.9945 11.4208 19C11.4261 19 11.4313 19 11.4366 19.0055C11.4419 19.0055 11.4419 19.0055 11.4472 19.0055H11.4525C11.4577 19.0055 11.4577 19.0055 11.463 19.0055C11.4789 19.0055 11.4894 19.0055 11.5053 19.0055C11.5211 19.0055 11.5317 19.0055 11.5475 19.0055C11.5528 19.0055 11.5528 19.0055 11.5581 19.0055H11.5633C11.5686 19.0055 11.5686 19.0055 11.5739 19.0055C11.5792 19.0055 11.5845 19.0055 11.5897 19C11.595 19 11.6003 19 11.6056 18.9945C11.6109 18.9945 11.6214 18.989 11.6267 18.989H11.632C11.6373 18.989 11.6373 18.9835 11.6425 18.9835C11.6478 18.9835 11.6478 18.9835 11.6531 18.978C11.6584 18.978 11.6584 18.9725 11.6637 18.9725C11.6689 18.9725 11.6742 18.967 11.6795 18.967C11.6795 18.967 11.6848 18.967 11.6848 18.9614C11.6901 18.9614 11.6953 18.9559 11.7006 18.9504C11.7059 18.9449 11.7112 18.9449 11.7165 18.9394C11.7217 18.9339 11.727 18.9339 11.7323 18.9284L11.7376 18.9229C11.7429 18.9229 11.7429 18.9174 11.7481 18.9174C11.7534 18.9119 11.764 18.9064 11.7693 18.9009C11.7745 18.9009 11.7745 18.8954 11.7798 18.8954C11.7798 18.8954 11.7798 18.8954 11.7851 18.8899C11.7904 18.8843 11.7957 18.8788 11.8009 18.8678L11.8062 18.8623L22.9102 5.96435C23.0317 5.81014 23.0317 5.57333 22.8997 5.41913ZM18.3271 1.22261L21.68 5.21536H16.854L18.3271 1.22261ZM17.6143 0.848116L16.1728 4.75275L12.329 0.848116H17.6143ZM15.4917 5.21536H7.54521L11.4789 1.12899L15.4917 5.21536ZM10.6235 0.848116L6.87464 4.74174L5.4543 0.848116H10.6235ZM4.72565 1.16203L6.20407 5.21536H1.32L4.72565 1.16203ZM1.23024 6.04145H6.49975L10.37 16.6594L1.23024 6.04145ZM11.5 17.4304L7.34985 6.04145H15.6976L11.5 17.4304ZM12.6405 16.6429L16.5477 6.04145H21.7645L12.6405 16.6429Z"/>
</mask>
<path d="M22.8997 5.41913L18.4908 0.165217V0.15971L18.4855 0.154203C18.4802 0.143188 18.4697 0.137681 18.4644 0.132174C18.4591 0.126667 18.4591 0.126667 18.4538 0.126667C18.4486 0.121159 18.438 0.115652 18.4327 0.110145C18.4274 0.104638 18.4274 0.104638 18.4222 0.0991304C18.4169 0.0936232 18.4063 0.0881159 18.401 0.0826087C18.3958 0.0771014 18.3905 0.0771014 18.3852 0.0715942C18.3799 0.0660869 18.3694 0.0660869 18.3641 0.0605797C18.3588 0.0550725 18.3535 0.0550725 18.3482 0.0550725C18.343 0.0550725 18.343 0.0495652 18.3377 0.0495652C18.3324 0.0495652 18.3324 0.0495652 18.3271 0.044058C18.3218 0.044058 18.3166 0.0385507 18.3113 0.0385507C18.306 0.0385507 18.2954 0.0330435 18.2902 0.0330435C18.2849 0.0330435 18.2796 0.0330435 18.2743 0.0275362C18.2638 0.0275362 18.2585 0.022029 18.2479 0.022029C18.2426 0.022029 18.2374 0.022029 18.2321 0.022029C18.2215 0.022029 18.211 0.022029 18.2057 0.022029C18.2004 0.022029 18.2004 0.022029 18.1951 0.022029H5.00549C4.92101 -0.00550725 4.82597 -0.0110145 4.73621 0.0275362C4.73093 0.0275362 4.73093 0.0330435 4.72565 0.0330435C4.64645 0.0495652 4.56725 0.0991304 4.51445 0.165217L0.100304 5.41913C-0.0316976 5.57884 -0.0316976 5.81014 0.105584 5.96985L11.2096 18.8678L11.2149 18.8733C11.2201 18.8788 11.2254 18.8843 11.2307 18.8899C11.2307 18.8899 11.236 18.8899 11.236 18.8954C11.2413 18.8954 11.2413 18.9009 11.2465 18.9009C11.2518 18.9064 11.2624 18.9119 11.2677 18.9174C11.2729 18.9229 11.2729 18.9229 11.2782 18.9229L11.2835 18.9284C11.2888 18.9339 11.2941 18.9339 11.2993 18.9394C11.3046 18.9449 11.3099 18.9449 11.3152 18.9504C11.3205 18.9559 11.3257 18.9559 11.331 18.9614C11.331 18.9614 11.3363 18.9614 11.3363 18.967C11.3416 18.967 11.3469 18.9725 11.3521 18.9725C11.3574 18.9725 11.3574 18.978 11.3627 18.978C11.368 18.978 11.368 18.978 11.3733 18.9835C11.3785 18.9835 11.3785 18.989 11.3838 18.989H11.3891C11.3944 18.989 11.4049 18.9945 11.4102 18.9945C11.4155 18.9945 11.4208 18.9945 11.4208 19C11.4261 19 11.4313 19 11.4366 19.0055C11.4419 19.0055 11.4419 19.0055 11.4472 19.0055H11.4525C11.4577 19.0055 11.4577 19.0055 11.463 19.0055C11.4789 19.0055 11.4894 19.0055 11.5053 19.0055C11.5211 19.0055 11.5317 19.0055 11.5475 19.0055C11.5528 19.0055 11.5528 19.0055 11.5581 19.0055H11.5633C11.5686 19.0055 11.5686 19.0055 11.5739 19.0055C11.5792 19.0055 11.5845 19.0055 11.5897 19C11.595 19 11.6003 19 11.6056 18.9945C11.6109 18.9945 11.6214 18.989 11.6267 18.989H11.632C11.6373 18.989 11.6373 18.9835 11.6425 18.9835C11.6478 18.9835 11.6478 18.9835 11.6531 18.978C11.6584 18.978 11.6584 18.9725 11.6637 18.9725C11.6689 18.9725 11.6742 18.967 11.6795 18.967C11.6795 18.967 11.6848 18.967 11.6848 18.9614C11.6901 18.9614 11.6953 18.9559 11.7006 18.9504C11.7059 18.9449 11.7112 18.9449 11.7165 18.9394C11.7217 18.9339 11.727 18.9339 11.7323 18.9284L11.7376 18.9229C11.7429 18.9229 11.7429 18.9174 11.7481 18.9174C11.7534 18.9119 11.764 18.9064 11.7693 18.9009C11.7745 18.9009 11.7745 18.8954 11.7798 18.8954C11.7798 18.8954 11.7798 18.8954 11.7851 18.8899C11.7904 18.8843 11.7957 18.8788 11.8009 18.8678L11.8062 18.8623L22.9102 5.96435C23.0317 5.81014 23.0317 5.57333 22.8997 5.41913ZM18.3271 1.22261L21.68 5.21536H16.854L18.3271 1.22261ZM17.6143 0.848116L16.1728 4.75275L12.329 0.848116H17.6143ZM15.4917 5.21536H7.54521L11.4789 1.12899L15.4917 5.21536ZM10.6235 0.848116L6.87464 4.74174L5.4543 0.848116H10.6235ZM4.72565 1.16203L6.20407 5.21536H1.32L4.72565 1.16203ZM1.23024 6.04145H6.49975L10.37 16.6594L1.23024 6.04145ZM11.5 17.4304L7.34985 6.04145H15.6976L11.5 17.4304ZM12.6405 16.6429L16.5477 6.04145H21.7645L12.6405 16.6429Z" fill="#DBC493"/>
<path d="M22.8997 5.41913L18.4908 0.165217V0.15971L18.4855 0.154203C18.4802 0.143188 18.4697 0.137681 18.4644 0.132174C18.4591 0.126667 18.4591 0.126667 18.4538 0.126667C18.4486 0.121159 18.438 0.115652 18.4327 0.110145C18.4274 0.104638 18.4274 0.104638 18.4222 0.0991304C18.4169 0.0936232 18.4063 0.0881159 18.401 0.0826087C18.3958 0.0771014 18.3905 0.0771014 18.3852 0.0715942C18.3799 0.0660869 18.3694 0.0660869 18.3641 0.0605797C18.3588 0.0550725 18.3535 0.0550725 18.3482 0.0550725C18.343 0.0550725 18.343 0.0495652 18.3377 0.0495652C18.3324 0.0495652 18.3324 0.0495652 18.3271 0.044058C18.3218 0.044058 18.3166 0.0385507 18.3113 0.0385507C18.306 0.0385507 18.2954 0.0330435 18.2902 0.0330435C18.2849 0.0330435 18.2796 0.0330435 18.2743 0.0275362C18.2638 0.0275362 18.2585 0.022029 18.2479 0.022029C18.2426 0.022029 18.2374 0.022029 18.2321 0.022029C18.2215 0.022029 18.211 0.022029 18.2057 0.022029C18.2004 0.022029 18.2004 0.022029 18.1951 0.022029H5.00549C4.92101 -0.00550725 4.82597 -0.0110145 4.73621 0.0275362C4.73093 0.0275362 4.73093 0.0330435 4.72565 0.0330435C4.64645 0.0495652 4.56725 0.0991304 4.51445 0.165217L0.100304 5.41913C-0.0316976 5.57884 -0.0316976 5.81014 0.105584 5.96985L11.2096 18.8678L11.2149 18.8733C11.2201 18.8788 11.2254 18.8843 11.2307 18.8899C11.2307 18.8899 11.236 18.8899 11.236 18.8954C11.2413 18.8954 11.2413 18.9009 11.2465 18.9009C11.2518 18.9064 11.2624 18.9119 11.2677 18.9174C11.2729 18.9229 11.2729 18.9229 11.2782 18.9229L11.2835 18.9284C11.2888 18.9339 11.2941 18.9339 11.2993 18.9394C11.3046 18.9449 11.3099 18.9449 11.3152 18.9504C11.3205 18.9559 11.3257 18.9559 11.331 18.9614C11.331 18.9614 11.3363 18.9614 11.3363 18.967C11.3416 18.967 11.3469 18.9725 11.3521 18.9725C11.3574 18.9725 11.3574 18.978 11.3627 18.978C11.368 18.978 11.368 18.978 11.3733 18.9835C11.3785 18.9835 11.3785 18.989 11.3838 18.989H11.3891C11.3944 18.989 11.4049 18.9945 11.4102 18.9945C11.4155 18.9945 11.4208 18.9945 11.4208 19C11.4261 19 11.4313 19 11.4366 19.0055C11.4419 19.0055 11.4419 19.0055 11.4472 19.0055H11.4525C11.4577 19.0055 11.4577 19.0055 11.463 19.0055C11.4789 19.0055 11.4894 19.0055 11.5053 19.0055C11.5211 19.0055 11.5317 19.0055 11.5475 19.0055C11.5528 19.0055 11.5528 19.0055 11.5581 19.0055H11.5633C11.5686 19.0055 11.5686 19.0055 11.5739 19.0055C11.5792 19.0055 11.5845 19.0055 11.5897 19C11.595 19 11.6003 19 11.6056 18.9945C11.6109 18.9945 11.6214 18.989 11.6267 18.989H11.632C11.6373 18.989 11.6373 18.9835 11.6425 18.9835C11.6478 18.9835 11.6478 18.9835 11.6531 18.978C11.6584 18.978 11.6584 18.9725 11.6637 18.9725C11.6689 18.9725 11.6742 18.967 11.6795 18.967C11.6795 18.967 11.6848 18.967 11.6848 18.9614C11.6901 18.9614 11.6953 18.9559 11.7006 18.9504C11.7059 18.9449 11.7112 18.9449 11.7165 18.9394C11.7217 18.9339 11.727 18.9339 11.7323 18.9284L11.7376 18.9229C11.7429 18.9229 11.7429 18.9174 11.7481 18.9174C11.7534 18.9119 11.764 18.9064 11.7693 18.9009C11.7745 18.9009 11.7745 18.8954 11.7798 18.8954C11.7798 18.8954 11.7798 18.8954 11.7851 18.8899C11.7904 18.8843 11.7957 18.8788 11.8009 18.8678L11.8062 18.8623L22.9102 5.96435C23.0317 5.81014 23.0317 5.57333 22.8997 5.41913ZM18.3271 1.22261L21.68 5.21536H16.854L18.3271 1.22261ZM17.6143 0.848116L16.1728 4.75275L12.329 0.848116H17.6143ZM15.4917 5.21536H7.54521L11.4789 1.12899L15.4917 5.21536ZM10.6235 0.848116L6.87464 4.74174L5.4543 0.848116H10.6235ZM4.72565 1.16203L6.20407 5.21536H1.32L4.72565 1.16203ZM1.23024 6.04145H6.49975L10.37 16.6594L1.23024 6.04145ZM11.5 17.4304L7.34985 6.04145H15.6976L11.5 17.4304ZM12.6405 16.6429L16.5477 6.04145H21.7645L12.6405 16.6429Z" stroke="#DBC493" stroke-width="0.4" mask="url(#path-1-outside-1)"/>
</svg>
