<svg width="200" height="67" viewBox="0 0 200 67" fill="none" xmlns="http://www.w3.org/2000/svg">
<path d="M54.1051 26.0104H65.446V36.1126L71.707 26.0104H84.111L74.5422 39.2478L84.4654 53.9948H71.4708L65.5641 43.312V53.9948H54.2233V26.0104H54.1051Z" fill="white"/>
<path d="M51.2699 53.182C49.4979 54.1109 47.0171 54.9237 43.7094 54.9237C34.495 54.9237 27.8795 49.0017 27.8795 40.0607C27.8795 29.8423 36.267 25.1976 43.4731 25.1976C45.7177 25.1976 49.0254 25.7782 51.2699 27.2877V37.0416C49.4979 34.9515 47.0171 34.0225 45.0089 34.0225C40.7561 34.0225 38.7478 36.8094 38.7478 40.1768C38.7478 43.7764 41.3467 45.7504 44.8907 45.7504C47.3715 45.7504 49.6161 44.5893 51.1518 43.1958V53.182H51.2699Z" fill="white"/>
<path d="M12.7584 36.461V32.513H13.8216C15.8299 32.513 16.3024 33.5581 16.3024 34.487C16.3024 35.4159 15.8299 36.461 13.8216 36.461H12.7584ZM1.4176 25.8943V53.8787H18.1926C25.9894 53.8787 27.7614 48.8856 27.7614 46.0988C27.7614 42.2669 25.1624 39.4801 21.5003 38.8995V38.7834C23.863 38.0867 26.4619 36.1126 26.4619 32.9775C26.4619 30.7712 25.635 25.8943 17.4838 25.8943H1.4176ZM12.7584 47.1438V42.9636H14.176C15.2392 42.9636 17.0112 43.1958 17.0112 45.0537C17.0112 47.0277 15.2392 47.1438 14.176 47.1438H12.7584Z" fill="white"/>
<path d="M150.62 29.6101L147.312 29.7262L147.076 28.9133L143.887 28.6811V28.2166L140.579 28.1005L141.17 29.2617L142.587 29.4939L142.469 29.0295L143.768 29.9584L146.013 30.4229L147.549 30.539L151.211 29.9584L150.62 29.6101Z" fill="white"/>
<path d="M142.351 26.8232L140.815 26.591C140.815 26.591 140.815 26.1265 140.224 25.7782C139.634 25.5459 139.752 25.7782 139.752 25.7782L139.161 25.3137L138.098 25.0815L137.98 24.2686L136.562 24.1525V23.8042L135.499 23.688L135.027 23.3397L135.145 22.8752L134.908 22.5269L133.609 21.9463L132.546 21.4818L131.837 20.669L131.01 19.9723L129.947 18.9272L127.23 17.9983L124.631 16.1404L123.568 15.6759L122.504 15.0953L120.142 13.818L116.716 11.9601L109.037 8.36049L106.793 7.43154C105.493 6.85095 105.375 6.61872 105.257 6.5026C104.076 6.27036 103.721 6.03813 103.131 5.45754C102.54 5.45754 101.24 4.76083 100.886 4.41248C100.886 4.41248 98.6415 3.71577 98.5233 3.59965C98.5233 3.48354 92.6167 1.50953 91.9079 1.2773C91.4353 1.2773 90.0177 0.928943 89.7814 0.928943C89.5452 0.928943 88.6001 0.696707 88.2457 0.580589C87.0644 0.464471 85.883 0.232236 84.5836 0.232236C83.6385 0.232236 83.166 0.232236 82.339 0C82.1028 0.116118 80.2126 -0.116118 79.5038 0.348354C78.795 0.348354 77.023 0.696707 76.6686 0.928943C75.6054 0.928943 73.9516 2.09012 73.3609 2.32236C73.1246 2.43847 72.7702 2.55459 72.4158 2.78683C74.306 3.36742 76.3142 4.18024 76.3142 4.18024C76.4324 4.29636 78.6769 4.99307 78.6769 4.99307C79.0313 5.34142 80.3308 6.03813 80.9214 6.03813C81.5121 6.61872 81.8665 6.85095 83.0478 7.08319C83.0478 7.19931 83.2841 7.54766 84.5836 8.01213L86.8281 8.94107L94.5068 12.5407L98.0508 14.3986L100.413 15.6759L101.477 16.2565L102.54 16.721L103.367 17.3016L105.021 17.8821L108.801 19.0433L113.408 20.7851L115.18 21.3657L116.952 21.8302L117.779 21.714L118.724 22.0624L119.669 22.8752L120.732 22.5269L121.441 22.643L122.032 23.3397L122.386 23.8042L123.213 24.0364L124.04 24.1525L125.103 23.9203L126.285 24.0364L126.757 24.7331L128.411 24.9653L130.774 25.1976L131.719 25.662L132.546 26.591L133.727 26.8232L136.917 27.2877L139.752 26.9393L141.642 27.0555L142.351 26.8232Z" fill="white"/>
<path d="M116.952 31.3518H120.26V31.9324L123.449 32.1646L123.686 32.8614L126.875 32.7452L127.584 33.2097L123.922 33.6742H122.386L120.142 33.0936L118.842 32.2808L118.96 32.6291L117.543 32.513L116.952 31.3518Z" fill="white"/>
<path d="M117.307 29.9584C117.307 29.9584 117.307 29.4939 116.716 29.1456C116.125 28.9133 116.243 29.1456 116.243 29.1456L115.653 28.6811L114.589 28.565V27.7522L113.172 27.636V27.2877L112.109 27.1716L111.636 26.8232L111.754 26.3588L111.518 26.0104L110.219 25.4298L109.155 24.9653L108.447 24.1525L107.501 23.4558L106.438 22.4107L103.721 21.4818L101.122 19.6239L100.059 19.1594L98.9959 18.5789L96.6332 17.3016L93.0892 15.4437L85.4105 11.9601L83.166 11.0312C81.8665 10.4506 81.7484 10.2184 81.7484 10.1023C80.567 9.87002 80.2126 9.63778 79.622 9.05719C79.0313 9.05719 77.7318 8.36048 77.3774 8.01213C77.3774 8.01213 75.1329 7.31542 75.0148 7.19931C75.0148 7.08319 69.1081 5.10919 68.3993 4.87695C67.9268 4.87695 66.5091 4.5286 66.2729 4.5286C66.0366 4.5286 65.0916 4.29636 64.7372 4.18024C63.5558 4.06412 62.3745 3.83189 61.075 3.83189C60.1299 3.83189 59.6574 3.83189 58.8305 3.59965C58.4761 3.83189 56.7041 3.48354 55.9953 3.94801C55.2865 3.94801 53.5145 4.29636 53.1601 4.5286C52.0969 4.5286 50.443 5.68977 49.8523 5.92201C49.3798 6.15425 48.7891 6.38648 48.3166 6.73484C48.0803 6.85095 44.8907 8.4766 44.6545 8.59272C44.6545 8.70884 41.4649 10.5667 41.2286 10.799C41.1105 10.9151 40.2835 11.2634 40.0473 11.4957C39.811 11.7279 38.9841 12.4246 38.6297 12.5407C38.5115 12.773 37.6846 13.1213 37.5664 13.3536C37.3302 13.5858 36.3851 14.0503 36.267 14.2825C36.267 14.2825 35.6763 14.747 35.3219 15.0953C35.2038 15.3276 34.9675 15.5598 34.7312 15.792C34.495 15.9081 33.668 16.3726 33.4318 16.4887C33.4318 16.9532 33.4318 17.766 32.723 17.6499L31.7779 18.2305C31.896 18.2305 31.3054 19.0433 30.7147 19.74C30.3603 20.0884 29.0608 20.5529 28.7064 20.9012C28.1158 21.5979 27.407 22.2946 26.9344 23.1075C26.9344 23.1075 26.9344 23.1075 26.9344 23.2236C26.9344 23.2236 26.9344 23.2236 27.0526 23.2236C27.0526 23.3397 27.6432 23.3397 27.6432 23.4558C27.7614 23.688 27.407 24.0364 27.2888 24.2686C27.2888 24.2686 27.2888 24.2686 27.407 24.2686C27.8795 24.2686 28.2339 23.8042 28.5883 23.688C28.8246 23.5719 29.179 23.4558 29.4152 23.3397C29.8878 22.9913 30.4784 22.7591 30.951 22.4107C34.7312 20.4367 38.6297 18.4627 42.4099 16.3726C44.1819 15.4437 45.7177 14.5147 47.7259 13.4697C48.1985 13.2374 50.0886 12.0763 51.3881 11.9601C53.1601 11.844 55.2865 12.3085 55.759 12.5407C56.3497 12.773 57.6491 13.3536 58.2398 13.5858C58.4761 13.7019 58.8305 13.9341 58.9486 13.9341C59.0667 14.0503 60.2481 14.1664 60.9569 14.3986C61.1931 14.5147 61.4294 14.6308 61.6657 14.747C62.7289 15.0953 65.4459 15.6759 66.5091 16.0243C67.3361 16.2565 67.8086 16.721 68.2812 16.8371C68.8718 17.1854 68.99 17.0693 69.6988 17.3016C70.762 17.4177 71.3526 17.766 71.4708 17.766C71.8252 17.8821 72.0614 17.9983 72.2977 18.1144C72.534 18.1144 73.1246 18.5789 73.3609 18.695C73.5972 18.695 75.3692 19.2756 75.4873 19.2756C75.7236 19.2756 77.023 19.74 77.1412 19.8561C77.4956 19.9723 77.85 20.0884 78.2044 20.2045L81.7484 21.4818L85.5286 22.643L90.1359 24.3848L91.9079 24.9653L93.6799 25.4298L94.5068 25.3137L95.4519 25.662L96.3969 26.591L97.4601 26.2426L98.1689 26.3588L98.7596 27.0555L99.114 27.5199L99.9409 27.7522L100.768 27.8683L101.831 27.636L103.012 27.7522L103.485 28.4489L105.139 28.6811L107.501 28.9133L108.447 29.3778L109.273 30.3068L110.455 30.539L113.644 31.0035L116.48 30.6551L118.37 30.7712L119.079 30.3068L117.307 29.9584Z" fill="white"/>
<path d="M101.359 50.7435C101.24 51.0919 100.532 51.5563 99.114 52.253C97.6964 52.9497 96.7513 53.2981 96.0425 53.2981C95.6881 53.2981 95.57 53.182 95.57 52.9497C95.57 52.6014 95.9244 52.0208 96.6332 50.9757C97.342 50.0468 97.6964 49.3501 97.6964 49.1178C97.6964 48.7695 97.5783 48.6534 97.2239 48.6534C96.7513 48.6534 95.8063 49.3501 94.2705 50.6274C93.3255 51.5563 92.3804 52.3691 91.6716 53.182C91.4353 53.5303 91.1991 53.6464 90.9628 53.6464C90.7265 53.6464 90.6084 53.5303 90.6084 53.182C90.6084 53.0659 90.7265 52.9497 90.8447 52.6014C91.3172 51.9047 91.7897 51.3241 92.2623 50.6274C92.9711 49.5823 93.3255 48.8856 93.3255 48.5373C93.3255 48.305 93.2073 48.305 93.0892 48.305C92.9711 48.305 92.8529 48.305 92.7348 48.4211C91.6716 49.234 90.254 50.279 88.2457 51.6724H88.0094C87.8913 51.6724 87.7732 51.6724 87.7732 51.5563C87.7732 51.4402 87.8913 51.4402 88.1276 51.208C89.5452 50.1629 91.0809 48.8856 92.8529 47.6083C93.0892 47.3761 93.4436 47.26 93.798 47.26C94.1524 47.26 94.3887 47.4922 94.3887 47.8406C94.3887 48.305 94.1524 48.8856 93.5617 49.6984C92.971 50.5113 92.7348 50.9757 92.7348 51.0919C92.7348 51.0919 92.7348 51.0919 92.8529 51.0919C92.8529 51.0919 93.5617 50.5113 94.8612 49.3501C96.2788 48.1889 97.2239 47.6083 97.6964 47.6083C98.4052 47.6083 98.8777 47.8406 98.8777 48.305C98.8777 48.7695 98.5233 49.4662 97.9327 50.5113C97.2239 51.5563 96.9876 52.1369 96.9876 52.253C96.9876 52.3692 97.1057 52.4853 97.342 52.4853C97.6964 52.4853 98.5233 52.253 99.5865 51.6724C100.295 51.208 100.886 50.8596 101.359 50.6274C101.359 50.5113 101.477 50.5113 101.595 50.5113C101.24 50.6274 101.359 50.6274 101.359 50.7435Z" fill="white"/>
<path d="M110.219 50.7435C110.219 50.9757 109.51 51.5563 107.974 52.253C106.556 53.0659 104.666 53.4142 102.658 53.4142C101.477 53.4142 100.768 53.2981 100.65 53.0659C100.65 52.9497 100.768 52.8336 101.004 52.8336C101.359 52.8336 101.477 52.9497 101.595 52.9497C102.658 52.9497 103.721 52.4853 104.903 51.4402C105.966 50.5113 106.556 49.5823 106.556 48.8856C106.556 48.5373 106.32 48.4211 105.966 48.4211C104.076 48.4211 101.949 50.1629 99.7047 53.7626C99.4684 53.9948 98.4052 56.201 96.3969 60.149C94.3886 64.0971 93.2073 66.3033 93.0892 66.5355C92.9711 66.8839 92.7348 67 92.4985 67C92.3804 67 92.3804 67 92.2623 67C92.1441 67 92.026 66.8839 92.026 66.6516C92.026 65.9549 96.6332 57.4783 105.729 41.4541C105.848 41.2218 106.084 40.9896 106.202 40.9896C106.202 40.9896 106.32 40.9896 106.32 41.1057C106.438 41.1057 106.438 41.2218 106.438 41.338C106.438 41.5702 106.438 41.6863 106.202 41.8024C106.202 41.8024 105.375 43.312 103.721 46.2149C102.185 49.0017 101.359 50.5113 101.359 50.7435C101.359 50.7435 101.477 50.6274 101.595 50.5113C102.067 49.9307 102.776 49.3501 103.603 48.7695C104.784 47.9567 105.729 47.6083 106.556 47.6083C107.147 47.6083 107.501 47.8406 107.501 48.305C107.501 49.8146 106.32 51.208 103.957 52.6014C105.729 52.6014 107.62 51.9047 109.628 50.6274C109.746 50.5113 109.746 50.5113 109.864 50.5113C110.219 50.6274 110.219 50.6274 110.219 50.7435Z" fill="white"/>
<path d="M120.142 50.7435C120.142 50.8596 120.024 50.9757 119.669 51.208C117.188 52.8336 115.416 53.6464 114.589 53.6464C113.999 53.6464 113.763 53.2981 113.763 52.7175C113.763 52.3691 113.881 52.0208 113.999 51.6724C114.235 51.208 114.353 50.8596 114.353 50.8596C114.353 50.7435 114.353 50.7435 114.235 50.7435C114.235 50.7435 114.117 50.7435 114.117 50.8596C113.644 51.3241 113.054 51.7886 112.109 52.4853C111.045 53.2981 110.219 53.6464 109.864 53.6464C109.392 53.6464 109.155 53.4142 109.155 52.9497C109.155 52.7175 109.51 51.9047 110.219 50.6274C110.927 49.3501 111.282 48.6534 111.282 48.4211C111.282 48.1889 111.045 48.0728 110.691 48.0728C110.573 48.0728 110.573 47.9567 110.573 47.7244C110.809 47.7244 110.927 47.6083 111.164 47.6083C111.872 47.6083 112.227 47.8406 112.227 48.1889C112.227 48.6534 111.872 49.3501 111.282 50.3951C110.691 51.4402 110.337 52.1369 110.337 52.3691C110.337 52.4853 110.455 52.6014 110.573 52.6014C110.927 52.6014 111.754 52.0208 112.936 50.9757C114.235 49.9307 115.18 49.0017 115.889 48.0728C116.243 47.7244 116.361 47.6083 116.598 47.6083C116.834 47.6083 116.952 47.7244 116.952 47.9567C116.952 48.0728 116.834 48.305 116.716 48.5373C115.535 50.3951 114.826 51.5563 114.826 52.0208C114.826 52.4853 115.062 52.7175 115.535 52.7175C116.243 52.7175 117.543 52.1369 119.433 50.8596C119.551 50.7435 119.669 50.7435 119.905 50.6274C120.024 50.5113 120.024 50.5113 120.142 50.5113C120.142 50.6274 120.142 50.6274 120.142 50.7435Z" fill="white"/>
<path d="M133.136 32.0485C133.136 34.0225 132.191 36.5771 130.183 39.5962C128.647 41.9185 126.757 44.2409 124.513 46.4471C122.504 48.4211 121.323 49.4662 120.851 49.4662C120.969 51.3241 121.559 52.253 122.623 52.253C123.449 52.253 124.395 51.9047 125.458 51.0919C125.221 50.7435 125.103 50.3951 125.103 49.9307C125.103 48.5373 125.576 47.8406 126.403 47.8406C126.757 47.8406 126.993 48.0728 126.993 48.5373C126.993 49.234 126.639 49.9307 126.048 50.6274C126.403 51.208 126.993 51.4402 127.702 51.4402C128.529 51.4402 129.238 51.0919 130.065 50.5113C130.183 50.3951 130.183 50.3951 130.301 50.3951C130.419 50.3951 130.419 50.3951 130.419 50.5113C130.419 50.6274 130.301 50.7435 130.065 50.8596C129.12 51.5563 128.293 52.0208 127.348 52.0208C126.639 52.0208 126.048 51.7886 125.576 51.3241C124.395 52.3691 123.213 52.9497 122.032 52.9497C121.323 52.9497 120.851 52.7175 120.378 52.1369C119.905 51.5563 119.669 50.9757 119.669 50.1629C119.669 47.9567 120.496 45.286 122.032 42.0347C123.449 39.1317 125.221 36.5771 127.23 34.3709C129.238 32.1646 130.892 31.0035 132.073 31.0035C132.9 31.1196 133.136 31.4679 133.136 32.0485ZM132.31 32.513C132.31 32.0485 132.073 31.8163 131.719 31.8163C130.774 31.8163 129.356 32.9775 127.584 35.1837C125.93 37.2738 124.395 39.7123 122.977 42.383C121.559 45.1698 120.851 47.26 120.851 48.7695C120.851 48.8856 120.851 48.8856 120.851 48.8856C121.205 48.8856 122.386 47.9567 124.158 45.9827C126.167 43.7764 127.939 41.6863 129.356 39.4801C131.364 36.5771 132.31 34.2548 132.31 32.513ZM126.875 48.8856C126.875 48.6534 126.757 48.5373 126.639 48.5373C126.167 48.5373 126.048 49.0017 126.048 49.8146C126.048 50.0468 126.048 50.3951 126.167 50.5113C126.639 50.0468 126.875 49.4662 126.875 48.8856Z" fill="white"/>
<path d="M140.343 50.7435C140.343 50.8596 140.224 50.9757 139.87 51.208C137.389 52.8336 135.617 53.6464 134.79 53.6464C134.2 53.6464 133.963 53.2981 133.963 52.7175C133.963 52.3691 134.081 52.0208 134.2 51.6724C134.436 51.208 134.554 50.8596 134.554 50.8596C134.554 50.7435 134.554 50.7435 134.436 50.7435C134.436 50.7435 134.318 50.7435 134.318 50.8596C133.845 51.3241 133.255 51.7886 132.31 52.4853C131.246 53.2981 130.419 53.6464 130.065 53.6464C129.592 53.6464 129.356 53.4142 129.356 52.9497C129.356 52.7175 129.711 51.9047 130.419 50.6274C131.128 49.3501 131.483 48.6534 131.483 48.4211C131.483 48.1889 131.246 48.0728 130.892 48.0728C130.774 48.0728 130.774 47.9567 130.774 47.7244C131.01 47.7244 131.128 47.6083 131.364 47.6083C132.073 47.6083 132.428 47.8406 132.428 48.1889C132.428 48.6534 132.073 49.3501 131.483 50.3951C130.892 51.4402 130.538 52.1369 130.538 52.3691C130.538 52.4853 130.656 52.6014 130.774 52.6014C131.128 52.6014 131.955 52.0208 133.136 50.9757C134.436 49.9307 135.381 49.0017 136.09 48.0728C136.444 47.7244 136.562 47.6083 136.799 47.6083C137.035 47.6083 137.153 47.7244 137.153 47.9567C137.153 48.0728 137.035 48.305 136.917 48.5373C135.735 50.3951 135.027 51.5563 135.027 52.0208C135.027 52.4853 135.263 52.7175 135.735 52.7175C136.444 52.7175 137.744 52.1369 139.634 50.8596C139.752 50.7435 139.87 50.7435 140.106 50.6274C140.224 50.5113 140.224 50.5113 140.343 50.5113C140.343 50.6274 140.343 50.6274 140.343 50.7435Z" fill="white"/>
<path d="M140.933 52.253C141.051 52.253 141.524 52.1369 142.115 51.7886C143.178 51.208 144.241 50.6274 145.068 49.9307C145.895 49.234 146.722 48.4211 147.312 47.6083C147.667 47.26 147.785 47.1438 148.021 47.1438C148.258 47.1438 148.376 47.26 148.376 47.4922C148.376 47.6083 148.258 47.8405 148.139 48.0728C146.958 49.9307 146.249 51.0919 146.249 51.5563C146.249 52.0208 146.486 52.253 146.958 52.253C147.667 52.253 148.966 51.6724 150.856 50.3951C150.856 50.3951 150.975 50.279 151.093 50.1629C151.211 50.0468 151.329 50.0468 151.447 50.0468C151.565 50.0468 151.565 50.0468 151.565 50.1629C151.565 50.279 151.447 50.3951 151.093 50.6274C148.612 52.253 146.84 53.0659 146.013 53.0659C145.422 53.0659 145.186 52.7175 145.186 52.1369C145.186 51.9047 145.186 51.6724 145.304 51.4402C145.304 51.208 145.422 50.9757 145.54 50.8596C145.659 50.6274 145.659 50.5113 145.777 50.3951C145.777 50.279 145.895 50.279 145.895 50.279C145.895 50.1629 145.895 50.1629 145.777 50.1629C145.659 50.1629 145.422 50.279 145.186 50.5113C144.832 50.7435 144.359 51.0919 143.65 51.4402C143.296 51.5563 142.942 51.7886 142.705 51.9047C142.469 52.0208 142.115 52.253 141.878 52.3691C141.642 52.4853 141.406 52.6014 141.17 52.7175C140.933 52.8336 140.697 52.8336 140.461 52.8336C140.224 52.8336 139.87 52.7175 139.634 52.6014C139.398 52.4853 139.279 52.253 139.279 51.9047C139.279 51.6724 139.279 51.4402 139.398 51.3241C139.516 51.208 139.634 51.0919 139.752 51.0919C139.87 51.0919 139.988 51.0919 139.988 51.208C140.106 51.3241 140.106 51.4402 140.224 51.5563C140.343 51.6724 140.343 51.7886 140.461 51.9047C140.579 52.0208 140.697 52.0208 140.933 52.0208V52.253Z" fill="white"/>
<path d="M158.181 50.7435C158.181 50.8596 157.708 51.208 156.881 51.7886C154.873 53.0659 153.337 53.7626 152.51 53.7626C151.211 53.7626 150.502 52.9497 150.502 51.4402C150.502 50.279 151.093 49.234 152.156 48.0728C153.219 46.9116 154.282 46.331 155.346 46.331C155.7 46.331 155.818 46.4471 155.818 46.7955C155.818 47.4922 155.227 48.4211 154.046 49.6984C153.101 50.6274 152.274 51.3241 151.683 51.6724C151.802 52.6014 152.156 52.9497 152.983 52.9497C153.692 52.9497 154.991 52.4853 156.763 51.4402C156.881 51.3241 157.354 51.0919 157.944 50.7435C158.063 50.6274 158.063 50.6274 158.181 50.6274C158.181 50.6274 158.181 50.6274 158.181 50.7435ZM154.873 47.26C154.873 47.0277 154.755 46.9116 154.637 46.9116C154.164 46.9116 153.455 47.3761 152.747 48.4211C152.038 49.4662 151.683 50.279 151.565 51.0919C151.92 50.9757 152.51 50.3951 153.455 49.5823C154.4 48.5373 154.873 47.7244 154.873 47.26Z" fill="white"/>
<path d="M162.552 53.0659C162.197 53.182 161.843 53.2981 161.488 53.4142C161.134 53.5303 160.898 53.5303 160.543 53.5303C160.307 53.5303 160.071 53.5303 159.835 53.4142C159.598 53.2981 159.48 53.182 159.48 52.8336C159.362 52.6014 159.48 52.3691 159.716 52.0208C159.953 51.6724 160.189 51.4402 160.425 51.0919C160.78 50.7435 161.016 50.3951 161.37 50.0468C161.725 49.6984 161.961 49.3501 162.315 49.1178C162.552 48.8856 162.788 48.5373 162.906 48.4211C163.024 48.1889 163.024 48.0728 162.788 48.0728C162.67 47.9567 162.434 47.9567 162.197 48.1889C161.843 48.4211 161.488 48.6534 161.134 49.0017C160.662 49.3501 160.307 49.6984 159.716 50.0468C159.244 50.3951 158.771 50.7435 158.417 50.9757C158.417 50.9757 158.299 50.9757 158.299 50.8596C158.299 50.7435 158.299 50.7435 158.299 50.6274C158.771 50.279 159.244 49.9307 159.835 49.4662C160.307 49.0017 160.898 48.6534 161.37 48.305C161.843 47.9567 162.315 47.6083 162.67 47.3761C163.024 47.1438 163.26 47.0277 163.497 47.0277C163.733 47.0277 163.969 47.0277 164.087 47.26C164.206 47.3761 164.324 47.6083 164.324 47.7244C164.324 48.0728 164.206 48.4211 163.969 48.7695C163.733 49.1179 163.142 49.5823 162.552 50.279C162.197 50.6274 161.843 50.8596 161.607 51.208C161.37 51.5563 161.134 51.9047 161.016 52.1369C160.898 52.3691 160.898 52.6014 161.016 52.7175C161.134 52.8336 161.37 52.9497 161.843 52.8336C162.315 52.8336 162.67 52.8336 163.024 52.7175C163.379 52.6014 163.733 52.4853 164.087 52.3691C164.442 52.253 164.796 52.0208 165.269 51.7886C165.741 51.5563 166.214 51.208 166.804 50.9757H166.923C166.923 50.9757 166.923 50.9757 167.041 50.9757C167.041 50.9757 167.041 51.0919 167.041 51.208C167.041 51.3241 167.041 51.4402 166.923 51.4402C166.45 51.7886 166.096 52.0208 165.859 52.1369C165.623 52.3691 165.269 52.4853 165.032 52.6014C164.796 52.7175 164.56 52.8336 164.206 52.9497C163.379 52.7175 163.024 52.8336 162.552 53.0659Z" fill="white"/>
<path d="M176.491 50.7435C176.491 50.8596 176.373 50.9757 176.019 51.208C173.538 52.8336 171.766 53.6464 170.939 53.6464C170.348 53.6464 170.112 53.2981 170.112 52.7175C170.112 52.3691 170.23 52.0208 170.348 51.6724C170.585 51.208 170.703 50.8596 170.703 50.8596C170.703 50.7435 170.703 50.7435 170.585 50.7435C170.585 50.7435 170.467 50.7435 170.467 50.8596C169.994 51.3241 169.403 51.7886 168.458 52.4853C167.395 53.2981 166.568 53.6464 166.214 53.6464C165.741 53.6464 165.505 53.4142 165.505 52.9497C165.505 52.7175 165.859 51.9047 166.568 50.6274C167.277 49.3501 167.631 48.6534 167.631 48.4211C167.631 48.1889 167.395 48.0728 167.041 48.0728C166.923 48.0728 166.923 47.9567 166.923 47.7244C167.159 47.7244 167.277 47.6083 167.513 47.6083C168.222 47.6083 168.576 47.8406 168.576 48.1889C168.576 48.6534 168.222 49.3501 167.631 50.3951C167.041 51.4402 166.686 52.1369 166.686 52.3691C166.686 52.4853 166.804 52.6014 166.923 52.6014C167.277 52.6014 168.104 52.0208 169.285 50.9757C170.585 49.9307 171.53 49.0017 172.239 48.0728C172.593 47.7244 172.711 47.6083 172.947 47.6083C173.184 47.6083 173.302 47.7244 173.302 47.9567C173.302 48.0728 173.184 48.305 173.066 48.5373C171.884 50.3951 171.175 51.5563 171.175 52.0208C171.175 52.4853 171.412 52.7175 171.884 52.7175C172.593 52.7175 173.892 52.1369 175.783 50.8596C175.901 50.7435 176.019 50.7435 176.255 50.6274C176.373 50.5113 176.373 50.5113 176.491 50.5113C176.373 50.6274 176.491 50.6274 176.491 50.7435Z" fill="white"/>
<path d="M182.753 49.8146C183.107 49.4662 183.343 49.3501 183.461 49.3501C183.698 49.3501 183.816 49.4662 183.816 49.6984C183.816 49.8146 183.698 50.0468 183.579 50.279C183.343 50.6274 183.107 50.9757 182.989 51.208C182.871 51.4402 182.753 51.6724 182.634 51.9047C182.634 52.1369 182.634 52.253 182.753 52.3691C182.871 52.4853 183.107 52.4853 183.461 52.4853C184.17 52.4853 185.47 51.9047 187.36 50.6274C187.36 50.6274 187.478 50.5113 187.596 50.3951C187.714 50.279 187.832 50.279 187.95 50.279C187.95 50.279 188.069 50.279 188.069 50.3951C188.069 50.5113 187.95 50.6274 187.596 50.8596C185.115 52.4853 183.343 53.2981 182.516 53.2981C181.926 53.2981 181.689 52.9497 181.689 52.3691C181.689 52.1369 181.689 51.7886 181.807 51.5563C181.926 51.3241 181.926 51.0919 182.044 50.9757C181.926 50.9757 181.807 50.9757 181.689 50.9757C181.571 50.9757 181.453 50.9757 181.335 50.8596C180.98 51.0919 180.508 51.4402 180.035 51.6724C179.563 51.9047 179.09 52.1369 178.618 52.3691C178.145 52.6014 177.673 52.7175 177.318 52.9497C176.846 53.0659 176.61 53.182 176.255 53.0659C176.019 53.0659 175.664 52.9497 175.428 52.8336C175.192 52.7175 175.074 52.4853 175.074 52.1369C175.074 51.9047 175.074 51.6724 175.192 51.5563C175.31 51.4402 175.428 51.3241 175.546 51.3241C175.665 51.3241 175.783 51.3241 175.783 51.4402C175.901 51.5563 175.901 51.6724 176.019 51.7886C176.137 51.9047 176.137 52.0208 176.255 52.1369C176.373 52.253 176.491 52.253 176.728 52.253H176.964C177.082 52.253 177.2 52.253 177.318 52.1369C177.555 52.0208 177.791 52.0208 178.145 51.7886C178.618 51.5563 179.09 51.3241 179.563 51.208C179.917 51.0919 180.39 50.8596 180.744 50.6274C180.39 50.5113 180.035 50.3951 179.681 50.279C179.209 50.0468 178.972 49.5823 179.09 49.0017C179.09 48.5373 179.327 48.1889 179.681 47.9567C180.035 47.7244 180.39 47.4922 180.744 47.3761C181.217 47.26 181.571 47.26 182.044 47.26C182.516 47.26 182.752 47.4922 182.989 47.7244C183.225 47.9567 183.343 48.305 183.225 48.6534C183.225 49.0017 182.871 49.5823 182.398 50.1629C182.28 50.279 182.28 50.279 182.162 50.3951C182.044 50.5113 182.044 50.5113 181.926 50.6274L182.398 50.7435C182.398 50.7435 182.516 50.6274 182.516 50.5113C182.634 50.3951 182.634 50.279 182.753 50.279C182.634 50.0468 182.634 49.9307 182.753 49.8146ZM182.162 49.234C182.28 49.1178 182.28 49.0017 182.28 49.0017C182.28 48.8856 182.398 48.8856 182.398 48.7695C182.516 48.6534 182.516 48.4211 182.516 48.305C182.516 48.0728 182.516 47.9567 182.28 47.8406C182.044 47.6083 181.807 47.6083 181.335 47.7244C180.862 47.8406 180.508 48.0728 180.272 48.305C179.917 48.5373 179.681 48.8856 179.681 49.234C179.563 49.5823 179.799 49.9307 180.272 50.1629L181.217 50.3951C181.335 50.279 181.571 50.0468 181.689 49.9307C181.807 49.5823 182.044 49.4662 182.162 49.234Z" fill="white"/>
<path d="M200 61.6586L0 62.8198V61.078L200 61.6586Z" fill="white"/>
</svg>
