<svg width="200" height="68" viewBox="0 0 200 68" fill="none" xmlns="http://www.w3.org/2000/svg">
<path d="M54.1051 26.2139H65.446V36.3951L71.707 26.2139H84.111L74.5422 39.5549L84.4654 54.4172H71.4708L65.5641 43.6508V54.4172H54.2233V26.2139H54.1051Z" fill="#044F8C"/>
<path d="M51.2699 53.598C49.4979 54.5342 47.0171 55.3534 43.7094 55.3534C34.495 55.3534 27.8795 49.3851 27.8795 40.374C27.8795 30.0757 36.267 25.3947 43.4731 25.3947C45.7177 25.3947 49.0254 25.9798 51.2699 27.5012V37.3314C49.4979 35.2249 47.0171 34.2887 45.0089 34.2887C40.7561 34.2887 38.7478 37.0973 38.7478 40.4911C38.7478 44.1189 41.3467 46.1083 44.8907 46.1083C47.3715 46.1083 49.6161 44.9381 51.1518 43.5337V53.598H51.2699Z" fill="#044F8C"/>
<path d="M12.7584 36.7462V32.7673H13.8216C15.8299 32.7673 16.3024 33.8206 16.3024 34.7568C16.3024 35.693 15.8299 36.7462 13.8216 36.7462H12.7584ZM1.4176 26.0968V54.3002H18.1926C25.9894 54.3002 27.7614 49.268 27.7614 46.4594C27.7614 42.5975 25.1624 39.7889 21.5003 39.2038V39.0867C23.863 38.3846 26.4619 36.3951 26.4619 33.2354C26.4619 31.0119 25.635 26.0968 17.4838 26.0968H1.4176ZM12.7584 47.5126V43.2997H14.176C15.2392 43.2997 17.0112 43.5337 17.0112 45.4062C17.0112 47.3956 15.2392 47.5126 14.176 47.5126H12.7584Z" fill="#044F8C"/>
<path d="M150.62 29.8417L147.312 29.9587L147.076 29.1395L143.887 28.9055V28.4374L140.579 28.3203L141.17 29.4906L142.587 29.7247L142.469 29.2565L143.768 30.1928L146.013 30.6609L147.549 30.7779L151.211 30.1928L150.62 29.8417Z" fill="#044F8C"/>
<path d="M142.351 27.0331L140.815 26.799C140.815 26.799 140.815 26.3309 140.224 25.9798C139.634 25.7458 139.752 25.9798 139.752 25.9798L139.161 25.5117L138.098 25.2777L137.98 24.4585L136.562 24.3414V23.9904L135.499 23.8733L135.027 23.5223L135.145 23.0542L134.908 22.7031L133.609 22.118L132.546 21.6498L131.837 20.8307L131.01 20.1285L129.947 19.0753L127.23 18.1391L124.631 16.2666L123.568 15.7985L122.504 15.2134L120.142 13.9261L116.716 12.0537L109.037 8.42589L106.793 7.48968C105.493 6.90455 105.375 6.67049 105.257 6.55347C104.076 6.31942 103.721 6.08536 103.131 5.50023C102.54 5.50023 101.24 4.79807 100.886 4.447C100.886 4.447 98.6415 3.74484 98.5233 3.62781C98.5233 3.51079 92.6167 1.52134 91.9079 1.28729C91.4353 1.28729 90.0177 0.93621 89.7814 0.93621C89.5452 0.93621 88.6001 0.702157 88.2457 0.585131C87.0644 0.468105 85.883 0.234052 84.5836 0.234052C83.6385 0.234052 83.166 0.234052 82.339 0C82.1028 0.117026 80.2126 -0.117026 79.5038 0.351079C78.795 0.351079 77.023 0.702157 76.6686 0.93621C75.6054 0.93621 73.9516 2.10647 73.3609 2.34052C73.1246 2.45755 72.7702 2.57458 72.4158 2.80863C74.306 3.39376 76.3142 4.21294 76.3142 4.21294C76.4324 4.32997 78.6769 5.03213 78.6769 5.03213C79.0313 5.38321 80.3308 6.08536 80.9214 6.08536C81.5121 6.67049 81.8665 6.90455 83.0478 7.1386C83.0478 7.25562 83.2841 7.6067 84.5836 8.07481L86.8281 9.01102L94.5068 12.6388L98.0508 14.5112L100.413 15.7985L101.477 16.3837L102.54 16.8518L103.367 17.4369L105.021 18.022L108.801 19.1923L113.408 20.9477L115.18 21.5328L116.952 22.0009L117.779 21.8839L118.724 22.235L119.669 23.0542L120.732 22.7031L121.441 22.8201L122.032 23.5223L122.386 23.9904L123.213 24.2244L124.04 24.3414L125.103 24.1074L126.285 24.2244L126.757 24.9266L128.411 25.1606L130.774 25.3947L131.719 25.8628L132.546 26.799L133.727 27.0331L136.917 27.5012L139.752 27.1501L141.642 27.2671L142.351 27.0331Z" fill="#044F8C"/>
<path d="M116.952 31.5971H120.26V32.1822L123.449 32.4163L123.686 33.1184L126.875 33.0014L127.584 33.4695L123.922 33.9376H122.386L120.142 33.3525L118.842 32.5333L118.96 32.8844L117.543 32.7673L116.952 31.5971Z" fill="#044F8C"/>
<path d="M117.307 30.1928C117.307 30.1928 117.307 29.7247 116.716 29.3736C116.125 29.1395 116.243 29.3736 116.243 29.3736L115.653 28.9055L114.589 28.7884V27.9693L113.172 27.8522V27.5012L112.109 27.3841L111.636 27.0331L111.754 26.5649L111.518 26.2139L110.219 25.6287L109.155 25.1606L108.447 24.3414L107.501 23.6393L106.438 22.5861L103.721 21.6498L101.122 19.7774L100.059 19.3093L98.9959 18.7242L96.6332 17.4369L93.0892 15.5645L85.4105 12.0537L83.166 11.1175C81.8665 10.5324 81.7484 10.2983 81.7484 10.1813C80.567 9.94723 80.2126 9.71317 79.622 9.12804C79.0313 9.12804 77.7318 8.42589 77.3774 8.07481C77.3774 8.07481 75.1329 7.37265 75.0148 7.25562C75.0148 7.1386 69.1081 5.14915 68.3993 4.9151C67.9268 4.9151 66.5091 4.56402 66.2729 4.56402C66.0366 4.56402 65.0916 4.32997 64.7372 4.21294C63.5558 4.09592 62.3745 3.86186 61.075 3.86186C60.1299 3.86186 59.6574 3.86186 58.8305 3.62781C58.4761 3.86186 56.7041 3.51079 55.9953 3.97889C55.2865 3.97889 53.5145 4.32997 53.1601 4.56402C52.0969 4.56402 50.443 5.73428 49.8523 5.96834C49.3798 6.20239 48.7891 6.43644 48.3166 6.78752C48.0803 6.90455 44.8907 8.54291 44.6545 8.65994C44.6545 8.77697 41.4649 10.6494 41.2286 10.8834C41.1105 11.0005 40.2835 11.3515 40.0473 11.5856C39.811 11.8196 38.9841 12.5218 38.6297 12.6388C38.5115 12.8729 37.6846 13.224 37.5664 13.458C37.3302 13.6921 36.3851 14.1602 36.267 14.3942C36.267 14.3942 35.6763 14.8623 35.3219 15.2134C35.2038 15.4475 34.9675 15.6815 34.7312 15.9156C34.495 16.0326 33.668 16.5007 33.4318 16.6177C33.4318 17.0858 33.4318 17.905 32.723 17.788L31.7779 18.3731C31.896 18.3731 31.3054 19.1923 30.7147 19.8945C30.3603 20.2455 29.0608 20.7136 28.7064 21.0647C28.1158 21.7669 27.407 22.469 26.9344 23.2882C26.9344 23.2882 26.9344 23.2882 26.9344 23.4052C26.9344 23.4052 26.9344 23.4052 27.0526 23.4052C27.0526 23.5223 27.6432 23.5223 27.6432 23.6393C27.7614 23.8733 27.407 24.2244 27.2888 24.4585C27.2888 24.4585 27.2888 24.4585 27.407 24.4585C27.8795 24.4585 28.2339 23.9904 28.5883 23.8733C28.8246 23.7563 29.179 23.6393 29.4152 23.5223C29.8878 23.1712 30.4784 22.9371 30.951 22.5861C34.7312 20.5966 38.6297 18.6072 42.4099 16.5007C44.1819 15.5645 45.7177 14.6283 47.7259 13.575C48.1985 13.341 50.0886 12.1707 51.3881 12.0537C53.1601 11.9367 55.2865 12.4048 55.759 12.6388C56.3497 12.8729 57.6491 13.458 58.2398 13.6921C58.4761 13.8091 58.8305 14.0431 58.9486 14.0431C59.0667 14.1602 60.2481 14.2772 60.9569 14.5112C61.1931 14.6283 61.4294 14.7453 61.6657 14.8623C62.7289 15.2134 65.446 15.7985 66.5091 16.1496C67.3361 16.3837 67.8086 16.8518 68.2812 16.9688C68.8718 17.3199 68.99 17.2029 69.6988 17.4369C70.762 17.5539 71.3526 17.905 71.4708 17.905C71.8252 18.022 72.0614 18.1391 72.2977 18.2561C72.534 18.2561 73.1246 18.7242 73.3609 18.8412C73.5972 18.8412 75.3692 19.4263 75.4873 19.4263C75.7236 19.4263 77.023 19.8945 77.1412 20.0115C77.4956 20.1285 77.85 20.2455 78.2044 20.3626L81.7484 21.6498L85.5286 22.8201L90.1359 24.5755L91.9079 25.1606L93.6799 25.6287L94.5068 25.5117L95.4519 25.8628L96.3969 26.799L97.4601 26.4479L98.1689 26.5649L98.7596 27.2671L99.114 27.7352L99.9409 27.9693L100.768 28.0863L101.831 27.8522L103.012 27.9693L103.485 28.6714L105.139 28.9055L107.501 29.1395L108.447 29.6076L109.273 30.5438L110.455 30.7779L113.644 31.246L116.48 30.8949L118.37 31.0119L119.079 30.5438L117.307 30.1928Z" fill="#044F8C"/>
<path d="M101.359 51.1404C101.24 51.4915 100.532 51.9596 99.114 52.6618C97.6964 53.3639 96.7513 53.715 96.0425 53.715C95.6881 53.715 95.57 53.598 95.57 53.3639C95.57 53.0129 95.9244 52.4277 96.6332 51.3745C97.342 50.4383 97.6964 49.7361 97.6964 49.5021C97.6964 49.151 97.5783 49.034 97.2239 49.034C96.7513 49.034 95.8063 49.7361 94.2705 51.0234C93.3255 51.9596 92.3804 52.7788 91.6716 53.598C91.4353 53.9491 91.1991 54.0661 90.9628 54.0661C90.7265 54.0661 90.6084 53.9491 90.6084 53.598C90.6084 53.481 90.7265 53.3639 90.8447 53.0129C91.3172 52.3107 91.7897 51.7256 92.2623 51.0234C92.9711 49.9702 93.3255 49.268 93.3255 48.917C93.3255 48.6829 93.2073 48.6829 93.0892 48.6829C92.9711 48.6829 92.8529 48.6829 92.7348 48.7999C91.6716 49.6191 90.254 50.6723 88.2457 52.0767H88.0094C87.8913 52.0767 87.7732 52.0767 87.7732 51.9596C87.7732 51.8426 87.8913 51.8426 88.1276 51.6086C89.5452 50.5553 91.0809 49.268 92.8529 47.9807C93.0892 47.7467 93.4436 47.6297 93.798 47.6297C94.1524 47.6297 94.3887 47.8637 94.3887 48.2148C94.3887 48.6829 94.1524 49.268 93.5617 50.0872C92.971 50.9064 92.7348 51.3745 92.7348 51.4915C92.7348 51.4915 92.7348 51.4915 92.8529 51.4915C92.8529 51.4915 93.5617 50.9064 94.8612 49.7361C96.2788 48.5659 97.2239 47.9807 97.6964 47.9807C98.4052 47.9807 98.8777 48.2148 98.8777 48.6829C98.8777 49.151 98.5233 49.8532 97.9327 50.9064C97.2239 51.9596 96.9876 52.5448 96.9876 52.6618C96.9876 52.7788 97.1057 52.8958 97.342 52.8958C97.6964 52.8958 98.5233 52.6618 99.5865 52.0767C100.295 51.6086 100.886 51.2575 101.359 51.0234C101.359 50.9064 101.477 50.9064 101.595 50.9064C101.24 51.0234 101.359 51.0234 101.359 51.1404Z" fill="#044F8C"/>
<path d="M110.219 51.1404C110.219 51.3745 109.51 51.9596 107.974 52.6618C106.556 53.481 104.666 53.8321 102.658 53.8321C101.477 53.8321 100.768 53.715 100.65 53.481C100.65 53.3639 100.768 53.2469 101.004 53.2469C101.359 53.2469 101.477 53.3639 101.595 53.3639C102.658 53.3639 103.721 52.8958 104.903 51.8426C105.966 50.9064 106.556 49.9702 106.556 49.268C106.556 48.917 106.32 48.7999 105.966 48.7999C104.076 48.7999 101.949 50.5553 99.7047 54.1831C99.4684 54.4172 98.4052 56.6407 96.3969 60.6196C94.3887 64.5985 93.2073 66.822 93.0892 67.056C92.9711 67.4071 92.7348 67.5241 92.4985 67.5241C92.3804 67.5241 92.3804 67.5241 92.2623 67.5241C92.1441 67.5241 92.026 67.4071 92.026 67.173C92.026 66.4709 96.6332 57.928 105.729 41.7784C105.848 41.5443 106.084 41.3102 106.202 41.3102C106.202 41.3102 106.32 41.3102 106.32 41.4273C106.438 41.4273 106.438 41.5443 106.438 41.6613C106.438 41.8954 106.438 42.0124 106.202 42.1294C106.202 42.1294 105.375 43.6508 103.721 46.5764C102.185 49.3851 101.359 50.9064 101.359 51.1404C101.359 51.1404 101.477 51.0234 101.595 50.9064C102.067 50.3213 102.776 49.7361 103.603 49.151C104.784 48.3318 105.729 47.9807 106.556 47.9807C107.147 47.9807 107.501 48.2148 107.501 48.6829C107.501 50.2042 106.32 51.6086 103.957 53.0129C105.729 53.0129 107.62 52.3107 109.628 51.0234C109.746 50.9064 109.746 50.9064 109.864 50.9064C110.219 51.0234 110.219 51.0234 110.219 51.1404Z" fill="#044F8C"/>
<path d="M120.142 51.1404C120.142 51.2575 120.024 51.3745 119.669 51.6086C117.188 53.2469 115.416 54.0661 114.589 54.0661C113.999 54.0661 113.763 53.715 113.763 53.1299C113.763 52.7788 113.881 52.4277 113.999 52.0767C114.235 51.6086 114.353 51.2575 114.353 51.2575C114.353 51.1404 114.353 51.1404 114.235 51.1404C114.235 51.1404 114.117 51.1404 114.117 51.2575C113.644 51.7256 113.054 52.1937 112.109 52.8958C111.045 53.715 110.219 54.0661 109.864 54.0661C109.392 54.0661 109.155 53.8321 109.155 53.3639C109.155 53.1299 109.51 52.3107 110.219 51.0234C110.927 49.7361 111.282 49.034 111.282 48.7999C111.282 48.5659 111.045 48.4488 110.691 48.4488C110.573 48.4488 110.573 48.3318 110.573 48.0978C110.809 48.0978 110.927 47.9807 111.164 47.9807C111.872 47.9807 112.227 48.2148 112.227 48.5659C112.227 49.034 111.872 49.7361 111.282 50.7894C110.691 51.8426 110.337 52.5448 110.337 52.7788C110.337 52.8958 110.455 53.0129 110.573 53.0129C110.927 53.0129 111.754 52.4277 112.936 51.3745C114.235 50.3213 115.18 49.3851 115.889 48.4488C116.243 48.0978 116.361 47.9807 116.598 47.9807C116.834 47.9807 116.952 48.0978 116.952 48.3318C116.952 48.4488 116.834 48.6829 116.716 48.917C115.535 50.7894 114.826 51.9596 114.826 52.4277C114.826 52.8958 115.062 53.1299 115.535 53.1299C116.243 53.1299 117.543 52.5448 119.433 51.2575C119.551 51.1404 119.669 51.1404 119.905 51.0234C120.024 50.9064 120.024 50.9064 120.142 50.9064C120.142 51.0234 120.142 51.0234 120.142 51.1404Z" fill="#044F8C"/>
<path d="M133.136 32.2992C133.136 34.2887 132.191 36.8633 130.183 39.9059C128.647 42.2465 126.757 44.587 124.513 46.8105C122.504 48.7999 121.323 49.8532 120.851 49.8532C120.969 51.7256 121.559 52.6618 122.623 52.6618C123.449 52.6618 124.395 52.3107 125.458 51.4915C125.221 51.1404 125.103 50.7894 125.103 50.3213C125.103 48.917 125.576 48.2148 126.403 48.2148C126.757 48.2148 126.993 48.4488 126.993 48.917C126.993 49.6191 126.639 50.3213 126.048 51.0234C126.403 51.6086 126.993 51.8426 127.702 51.8426C128.529 51.8426 129.238 51.4915 130.065 50.9064C130.183 50.7894 130.183 50.7894 130.301 50.7894C130.419 50.7894 130.419 50.7894 130.419 50.9064C130.419 51.0234 130.301 51.1404 130.065 51.2575C129.12 51.9596 128.293 52.4277 127.348 52.4277C126.639 52.4277 126.048 52.1937 125.576 51.7256C124.395 52.7788 123.213 53.3639 122.032 53.3639C121.323 53.3639 120.851 53.1299 120.378 52.5448C119.905 51.9596 119.669 51.3745 119.669 50.5553C119.669 48.3318 120.496 45.6402 122.032 42.3635C123.449 39.4378 125.221 36.8633 127.23 34.6398C129.238 32.4163 130.892 31.246 132.073 31.246C132.9 31.363 133.136 31.7141 133.136 32.2992ZM132.31 32.7673C132.31 32.2992 132.073 32.0652 131.719 32.0652C130.774 32.0652 129.356 33.2354 127.584 35.4589C125.93 37.5654 124.395 40.023 122.977 42.7146C121.559 45.5232 120.851 47.6297 120.851 49.151C120.851 49.268 120.851 49.268 120.851 49.268C121.205 49.268 122.386 48.3318 124.158 46.3424C126.167 44.1189 127.939 42.0124 129.356 39.7889C131.364 36.8633 132.31 34.5227 132.31 32.7673ZM126.875 49.268C126.875 49.034 126.757 48.917 126.639 48.917C126.167 48.917 126.048 49.3851 126.048 50.2042C126.048 50.4383 126.048 50.7894 126.167 50.9064C126.639 50.4383 126.875 49.8532 126.875 49.268Z" fill="#044F8C"/>
<path d="M140.343 51.1404C140.343 51.2575 140.224 51.3745 139.87 51.6086C137.389 53.2469 135.617 54.0661 134.79 54.0661C134.2 54.0661 133.963 53.715 133.963 53.1299C133.963 52.7788 134.081 52.4277 134.2 52.0767C134.436 51.6086 134.554 51.2575 134.554 51.2575C134.554 51.1404 134.554 51.1404 134.436 51.1404C134.436 51.1404 134.318 51.1404 134.318 51.2575C133.845 51.7256 133.255 52.1937 132.31 52.8958C131.246 53.715 130.419 54.0661 130.065 54.0661C129.592 54.0661 129.356 53.8321 129.356 53.3639C129.356 53.1299 129.711 52.3107 130.419 51.0234C131.128 49.7361 131.483 49.034 131.483 48.7999C131.483 48.5659 131.246 48.4488 130.892 48.4488C130.774 48.4488 130.774 48.3318 130.774 48.0978C131.01 48.0978 131.128 47.9807 131.364 47.9807C132.073 47.9807 132.428 48.2148 132.428 48.5659C132.428 49.034 132.073 49.7361 131.483 50.7894C130.892 51.8426 130.538 52.5448 130.538 52.7788C130.538 52.8958 130.656 53.0129 130.774 53.0129C131.128 53.0129 131.955 52.4277 133.136 51.3745C134.436 50.3213 135.381 49.3851 136.09 48.4488C136.444 48.0978 136.562 47.9807 136.799 47.9807C137.035 47.9807 137.153 48.0978 137.153 48.3318C137.153 48.4488 137.035 48.6829 136.917 48.917C135.735 50.7894 135.027 51.9596 135.027 52.4277C135.027 52.8958 135.263 53.1299 135.735 53.1299C136.444 53.1299 137.744 52.5448 139.634 51.2575C139.752 51.1404 139.87 51.1404 140.106 51.0234C140.224 50.9064 140.224 50.9064 140.343 50.9064C140.343 51.0234 140.343 51.0234 140.343 51.1404Z" fill="#044F8C"/>
<path d="M140.933 52.6618C141.051 52.6618 141.524 52.5448 142.115 52.1937C143.178 51.6086 144.241 51.0234 145.068 50.3213C145.895 49.6191 146.722 48.7999 147.312 47.9807C147.667 47.6297 147.785 47.5126 148.021 47.5126C148.258 47.5126 148.376 47.6297 148.376 47.8637C148.376 47.9807 148.258 48.2148 148.139 48.4488C146.958 50.3213 146.249 51.4915 146.249 51.9596C146.249 52.4277 146.486 52.6618 146.958 52.6618C147.667 52.6618 148.966 52.0767 150.856 50.7894C150.856 50.7894 150.975 50.6723 151.093 50.5553C151.211 50.4383 151.329 50.4383 151.447 50.4383C151.565 50.4383 151.565 50.4383 151.565 50.5553C151.565 50.6723 151.447 50.7894 151.093 51.0234C148.612 52.6618 146.84 53.481 146.013 53.481C145.422 53.481 145.186 53.1299 145.186 52.5448C145.186 52.3107 145.186 52.0767 145.304 51.8426C145.304 51.6086 145.422 51.3745 145.54 51.2575C145.659 51.0234 145.659 50.9064 145.777 50.7894C145.777 50.6723 145.895 50.6723 145.895 50.6723C145.895 50.5553 145.895 50.5553 145.777 50.5553C145.659 50.5553 145.422 50.6723 145.186 50.9064C144.832 51.1404 144.359 51.4915 143.65 51.8426C143.296 51.9596 142.942 52.1937 142.705 52.3107C142.469 52.4277 142.115 52.6618 141.878 52.7788C141.642 52.8958 141.406 53.0129 141.17 53.1299C140.933 53.2469 140.697 53.2469 140.461 53.2469C140.224 53.2469 139.87 53.1299 139.634 53.0129C139.398 52.8958 139.279 52.6618 139.279 52.3107C139.279 52.0767 139.279 51.8426 139.398 51.7256C139.516 51.6086 139.634 51.4915 139.752 51.4915C139.87 51.4915 139.988 51.4915 139.988 51.6086C140.106 51.7256 140.106 51.8426 140.224 51.9596C140.343 52.0767 140.343 52.1937 140.461 52.3107C140.579 52.4277 140.697 52.4277 140.933 52.4277V52.6618Z" fill="#044F8C"/>
<path d="M158.181 51.1404C158.181 51.2575 157.708 51.6086 156.881 52.1937C154.873 53.481 153.337 54.1831 152.51 54.1831C151.211 54.1831 150.502 53.3639 150.502 51.8426C150.502 50.6723 151.093 49.6191 152.156 48.4488C153.219 47.2786 154.282 46.6935 155.346 46.6935C155.7 46.6935 155.818 46.8105 155.818 47.1616C155.818 47.8637 155.227 48.7999 154.046 50.0872C153.101 51.0234 152.274 51.7256 151.683 52.0767C151.802 53.0129 152.156 53.3639 152.983 53.3639C153.692 53.3639 154.991 52.8958 156.763 51.8426C156.881 51.7256 157.354 51.4915 157.944 51.1404C158.063 51.0234 158.063 51.0234 158.181 51.0234C158.181 51.0234 158.181 51.0234 158.181 51.1404ZM154.873 47.6297C154.873 47.3956 154.755 47.2786 154.637 47.2786C154.164 47.2786 153.455 47.7467 152.747 48.7999C152.038 49.8532 151.683 50.6723 151.565 51.4915C151.92 51.3745 152.51 50.7894 153.455 49.9702C154.4 48.917 154.873 48.0978 154.873 47.6297Z" fill="#044F8C"/>
<path d="M162.552 53.481C162.197 53.598 161.843 53.715 161.488 53.8321C161.134 53.9491 160.898 53.9491 160.543 53.9491C160.307 53.9491 160.071 53.9491 159.835 53.8321C159.598 53.715 159.48 53.598 159.48 53.2469C159.362 53.0129 159.48 52.7788 159.716 52.4277C159.953 52.0767 160.189 51.8426 160.425 51.4915C160.78 51.1404 161.016 50.7894 161.37 50.4383C161.725 50.0872 161.961 49.7361 162.315 49.5021C162.552 49.268 162.788 48.917 162.906 48.7999C163.024 48.5659 163.024 48.4488 162.788 48.4488C162.67 48.3318 162.434 48.3318 162.197 48.5659C161.843 48.7999 161.488 49.034 161.134 49.3851C160.662 49.7361 160.307 50.0872 159.716 50.4383C159.244 50.7894 158.771 51.1404 158.417 51.3745C158.417 51.3745 158.299 51.3745 158.299 51.2575C158.299 51.1404 158.299 51.1404 158.299 51.0234C158.771 50.6723 159.244 50.3213 159.835 49.8532C160.307 49.3851 160.898 49.034 161.37 48.6829C161.843 48.3318 162.315 47.9807 162.67 47.7467C163.024 47.5126 163.26 47.3956 163.497 47.3956C163.733 47.3956 163.969 47.3956 164.087 47.6297C164.206 47.7467 164.324 47.9807 164.324 48.0978C164.324 48.4488 164.206 48.7999 163.969 49.151C163.733 49.5021 163.142 49.9702 162.552 50.6723C162.197 51.0234 161.843 51.2575 161.607 51.6086C161.37 51.9596 161.134 52.3107 161.016 52.5448C160.898 52.7788 160.898 53.0129 161.016 53.1299C161.134 53.2469 161.37 53.3639 161.843 53.2469C162.315 53.2469 162.67 53.2469 163.024 53.1299C163.379 53.0129 163.733 52.8958 164.087 52.7788C164.442 52.6618 164.796 52.4277 165.269 52.1937C165.741 51.9596 166.214 51.6086 166.804 51.3745H166.923C166.923 51.3745 166.923 51.3745 167.041 51.3745C167.041 51.3745 167.041 51.4915 167.041 51.6086C167.041 51.7256 167.041 51.8426 166.923 51.8426C166.45 52.1937 166.096 52.4277 165.859 52.5448C165.623 52.7788 165.269 52.8958 165.032 53.0129C164.796 53.1299 164.56 53.2469 164.206 53.3639C163.379 53.1299 163.024 53.2469 162.552 53.481Z" fill="#044F8C"/>
<path d="M176.491 51.1404C176.491 51.2575 176.373 51.3745 176.019 51.6086C173.538 53.2469 171.766 54.0661 170.939 54.0661C170.348 54.0661 170.112 53.715 170.112 53.1299C170.112 52.7788 170.23 52.4277 170.348 52.0767C170.585 51.6086 170.703 51.2575 170.703 51.2575C170.703 51.1404 170.703 51.1404 170.585 51.1404C170.585 51.1404 170.467 51.1404 170.467 51.2575C169.994 51.7256 169.403 52.1937 168.458 52.8958C167.395 53.715 166.568 54.0661 166.214 54.0661C165.741 54.0661 165.505 53.8321 165.505 53.3639C165.505 53.1299 165.859 52.3107 166.568 51.0234C167.277 49.7361 167.631 49.034 167.631 48.7999C167.631 48.5659 167.395 48.4488 167.041 48.4488C166.923 48.4488 166.923 48.3318 166.923 48.0978C167.159 48.0978 167.277 47.9807 167.513 47.9807C168.222 47.9807 168.576 48.2148 168.576 48.5659C168.576 49.034 168.222 49.7361 167.631 50.7894C167.041 51.8426 166.686 52.5448 166.686 52.7788C166.686 52.8958 166.804 53.0129 166.923 53.0129C167.277 53.0129 168.104 52.4277 169.285 51.3745C170.585 50.3213 171.53 49.3851 172.239 48.4488C172.593 48.0978 172.711 47.9807 172.947 47.9807C173.184 47.9807 173.302 48.0978 173.302 48.3318C173.302 48.4488 173.184 48.6829 173.066 48.917C171.884 50.7894 171.175 51.9596 171.175 52.4277C171.175 52.8958 171.412 53.1299 171.884 53.1299C172.593 53.1299 173.892 52.5448 175.783 51.2575C175.901 51.1404 176.019 51.1404 176.255 51.0234C176.373 50.9064 176.373 50.9064 176.491 50.9064C176.373 51.0234 176.491 51.0234 176.491 51.1404Z" fill="#044F8C"/>
<path d="M182.753 50.2042C183.107 49.8532 183.343 49.7361 183.461 49.7361C183.698 49.7361 183.816 49.8532 183.816 50.0872C183.816 50.2042 183.698 50.4383 183.579 50.6723C183.343 51.0234 183.107 51.3745 182.989 51.6086C182.871 51.8426 182.753 52.0767 182.634 52.3107C182.634 52.5448 182.634 52.6618 182.753 52.7788C182.871 52.8958 183.107 52.8958 183.461 52.8958C184.17 52.8958 185.47 52.3107 187.36 51.0234C187.36 51.0234 187.478 50.9064 187.596 50.7894C187.714 50.6723 187.832 50.6723 187.95 50.6723C187.95 50.6723 188.069 50.6723 188.069 50.7894C188.069 50.9064 187.95 51.0234 187.596 51.2575C185.115 52.8958 183.343 53.715 182.516 53.715C181.926 53.715 181.689 53.3639 181.689 52.7788C181.689 52.5448 181.689 52.1937 181.807 51.9596C181.926 51.7256 181.926 51.4915 182.044 51.3745C181.926 51.3745 181.807 51.3745 181.689 51.3745C181.571 51.3745 181.453 51.3745 181.335 51.2575C180.98 51.4915 180.508 51.8426 180.035 52.0767C179.563 52.3107 179.09 52.5448 178.618 52.7788C178.145 53.0129 177.673 53.1299 177.318 53.3639C176.846 53.481 176.61 53.598 176.255 53.481C176.019 53.481 175.664 53.3639 175.428 53.2469C175.192 53.1299 175.074 52.8958 175.074 52.5448C175.074 52.3107 175.074 52.0767 175.192 51.9596C175.31 51.8426 175.428 51.7256 175.546 51.7256C175.665 51.7256 175.783 51.7256 175.783 51.8426C175.901 51.9596 175.901 52.0767 176.019 52.1937C176.137 52.3107 176.137 52.4277 176.255 52.5448C176.373 52.6618 176.491 52.6618 176.728 52.6618H176.964C177.082 52.6618 177.2 52.6618 177.318 52.5448C177.555 52.4277 177.791 52.4277 178.145 52.1937C178.618 51.9596 179.09 51.7256 179.563 51.6086C179.917 51.4915 180.39 51.2575 180.744 51.0234C180.39 50.9064 180.035 50.7894 179.681 50.6723C179.209 50.4383 178.972 49.9702 179.09 49.3851C179.09 48.917 179.327 48.5659 179.681 48.3318C180.035 48.0978 180.39 47.8637 180.744 47.7467C181.217 47.6297 181.571 47.6297 182.044 47.6297C182.516 47.6297 182.752 47.8637 182.989 48.0978C183.225 48.3318 183.343 48.6829 183.225 49.034C183.225 49.3851 182.871 49.9702 182.398 50.5553C182.28 50.6723 182.28 50.6723 182.162 50.7894C182.044 50.9064 182.044 50.9064 181.926 51.0234L182.398 51.1404C182.398 51.1404 182.516 51.0234 182.516 50.9064C182.634 50.7894 182.634 50.6723 182.753 50.6723C182.634 50.4383 182.634 50.3213 182.753 50.2042ZM182.162 49.6191C182.28 49.5021 182.28 49.3851 182.28 49.3851C182.28 49.268 182.398 49.268 182.398 49.151C182.516 49.034 182.516 48.7999 182.516 48.6829C182.516 48.4488 182.516 48.3318 182.28 48.2148C182.044 47.9807 181.807 47.9807 181.335 48.0978C180.862 48.2148 180.508 48.4488 180.272 48.6829C179.917 48.917 179.681 49.268 179.681 49.6191C179.563 49.9702 179.799 50.3213 180.272 50.5553L181.217 50.7894C181.335 50.6723 181.571 50.4383 181.689 50.3213C181.807 49.9702 182.044 49.8532 182.162 49.6191Z" fill="#044F8C"/>
<path d="M200 62.1409L0 63.3112V61.5558L200 62.1409Z" fill="#044F8C"/>
</svg>
