<svg width="178" height="60" viewBox="0 0 178 60" fill="none" xmlns="http://www.w3.org/2000/svg">
<path d="M48.1536 23.2929H58.2469V32.3397L63.8193 23.2929H74.8588L66.3426 35.1473L75.1742 48.3535H63.609L58.352 38.7868V48.3535H48.2587V23.2929H48.1536Z" fill="white"/>
<path d="M45.6302 47.6256C44.0532 48.4575 41.8452 49.1854 38.9014 49.1854C30.7005 49.1854 24.8128 43.8821 24.8128 35.8752C24.8128 26.7244 32.2776 22.565 38.6911 22.565C40.6887 22.565 43.6326 23.0849 45.6302 24.4367V33.1716C44.0532 31.2998 41.8452 30.4679 40.0579 30.4679C36.2729 30.4679 34.4855 32.9636 34.4855 35.9792C34.4855 39.2028 36.7986 40.9705 39.9527 40.9705C42.1607 40.9705 44.1583 39.9307 45.5251 38.6828V47.6256H45.6302Z" fill="white"/>
<path d="M11.355 32.6516V29.1161H12.3012C14.0886 29.1161 14.5092 30.052 14.5092 30.8839C14.5092 31.7158 14.0886 32.6516 12.3012 32.6516H11.355ZM1.26167 23.1889V48.2496H16.1914C23.1305 48.2496 24.7076 43.7782 24.7076 41.2825C24.7076 37.851 22.3946 35.3553 19.1353 34.8354V34.7314C21.238 34.1074 23.5511 32.3397 23.5511 29.5321C23.5511 27.5563 22.8151 23.1889 15.5605 23.1889H1.26167ZM11.355 42.2184V38.4749H12.6167C13.5629 38.4749 15.14 38.6828 15.14 40.3466C15.14 42.1144 13.5629 42.2184 12.6167 42.2184H11.355Z" fill="white"/>
<path d="M134.052 26.5165L131.108 26.6204L130.898 25.8925L128.059 25.6846V25.2686L125.115 25.1646L125.641 26.2045L126.903 26.4125L126.797 25.9965L127.954 26.8284L129.952 27.2444L131.318 27.3484L134.578 26.8284L134.052 26.5165Z" fill="white"/>
<path d="M126.692 24.0208L125.325 23.8128C125.325 23.8128 125.325 23.3969 124.8 23.0849C124.274 22.8769 124.379 23.0849 124.379 23.0849L123.854 22.669L122.907 22.461L122.802 21.7331L121.54 21.6291V21.3172L120.594 21.2132L120.174 20.9012L120.279 20.4853L120.069 20.1733L118.912 19.6534L117.966 19.2374L117.335 18.5095L116.599 17.8856L115.653 16.9497L113.234 16.1179L110.921 14.4541L109.975 14.0381L109.029 13.5182L106.926 12.3744L103.877 10.7106L97.0431 7.487L95.0455 6.65511C93.8889 6.13518 93.7838 5.92721 93.6787 5.82322C92.6273 5.61525 92.3119 5.40728 91.7862 4.88735C91.2605 4.88735 90.104 4.26343 89.7885 3.95147C89.7885 3.95147 87.7909 3.32756 87.6858 3.22357C87.6858 3.11958 82.4288 1.35182 81.798 1.14385C81.3774 1.14385 80.1158 0.831889 79.9055 0.831889C79.6952 0.831889 78.8541 0.623917 78.5387 0.519931C77.4873 0.415945 76.4359 0.207972 75.2794 0.207972C74.4383 0.207972 74.0177 0.207972 73.2817 0C73.0715 0.103986 71.3893 -0.103986 70.7584 0.311958C70.1276 0.311958 68.5505 0.623917 68.2351 0.831889C67.2888 0.831889 65.8169 1.87175 65.2912 2.07972C65.0809 2.18371 64.7655 2.28769 64.4501 2.49567C66.1323 3.0156 67.9197 3.7435 67.9197 3.7435C68.0248 3.84749 70.0224 4.4714 70.0224 4.4714C70.3379 4.78336 71.4944 5.40728 72.0201 5.40728C72.5458 5.92721 72.8612 6.13518 73.9126 6.34315C73.9126 6.44714 74.1228 6.7591 75.2794 7.17504L77.277 8.00693L84.111 11.2305L87.2652 12.8943L89.368 14.0381L90.3142 14.5581L91.2605 14.974L91.9965 15.4939L93.4684 16.0139L96.8328 17.0537L100.933 18.6135L102.51 19.1334L104.087 19.5494L104.823 19.4454L105.664 19.7574L106.506 20.4853L107.452 20.1733L108.083 20.2773L108.608 20.9012L108.924 21.3172L109.66 21.5251L110.396 21.6291L111.342 21.4211L112.393 21.5251L112.814 22.149L114.286 22.357L116.389 22.565L117.23 22.9809L117.966 23.8128L119.017 24.0208L121.856 24.4367L124.379 24.1248L126.061 24.2288L126.692 24.0208Z" fill="white"/>
<path d="M104.087 28.0763H107.031V28.5962L109.87 28.8042L110.08 29.4281L112.919 29.3241L113.55 29.74L110.291 30.156H108.924L106.926 29.636L105.77 28.9081L105.875 29.2201L104.613 29.1161L104.087 28.0763Z" fill="white"/>
<path d="M104.403 26.8284C104.403 26.8284 104.403 26.4125 103.877 26.1005C103.351 25.8925 103.457 26.1005 103.457 26.1005L102.931 25.6846L101.985 25.5806V24.8527L100.723 24.7487V24.4367L99.7767 24.3328L99.3562 24.0208L99.4613 23.6049L99.251 23.2929L98.0945 22.773L97.1483 22.357L96.5174 21.6291L95.6763 21.0052L94.7301 20.0693L92.3119 19.2374L89.9988 17.5737L89.0526 17.1577L88.1063 16.6378L86.0035 15.4939L82.8494 13.8302L76.0154 10.7106L74.0177 9.87868C72.8612 9.35875 72.7561 9.15078 72.7561 9.04679C71.7047 8.83882 71.3892 8.63085 70.8635 8.11092C70.3379 8.11092 69.1813 7.487 68.8659 7.17504C68.8659 7.17504 66.8683 6.55113 66.7631 6.44714C66.7631 6.34315 61.5062 4.57539 60.8754 4.36742C60.4548 4.36742 59.1931 4.05546 58.9829 4.05546C58.7726 4.05546 57.9315 3.84749 57.6161 3.7435C56.5647 3.63951 55.5133 3.43154 54.3568 3.43154C53.5157 3.43154 53.0951 3.43154 52.3591 3.22357C52.0437 3.43154 50.4666 3.11958 49.8358 3.53553C49.205 3.53553 47.6279 3.84749 47.3125 4.05546C46.3662 4.05546 44.8943 5.09532 44.3686 5.30329C43.948 5.51127 43.4223 5.71924 43.0018 6.0312C42.7915 6.13518 39.9527 7.59099 39.7425 7.69497C39.7425 7.79896 36.9037 9.46274 36.6934 9.67071C36.5883 9.7747 35.8523 10.0867 35.6421 10.2946C35.4318 10.5026 34.6958 11.1265 34.3804 11.2305C34.2752 11.4385 33.5393 11.7504 33.4341 11.9584C33.2239 12.1664 32.3828 12.5823 32.2776 12.7903C32.2776 12.7903 31.7519 13.2062 31.4365 13.5182C31.3314 13.7262 31.1211 13.9341 30.9108 14.1421C30.7005 14.2461 29.9646 14.662 29.7543 14.766C29.7543 15.182 29.7543 15.9099 29.1234 15.8059L28.2823 16.3258C28.3875 16.3258 27.8618 17.0537 27.3361 17.6776C27.0207 17.9896 25.8641 18.4055 25.5487 18.7175C25.023 19.3414 24.3922 19.9653 23.9716 20.6932C23.9716 20.6932 23.9716 20.6932 23.9716 20.7972C23.9716 20.7972 23.9716 20.7972 24.0768 20.7972C24.0768 20.9012 24.6025 20.9012 24.6025 21.0052C24.7076 21.2132 24.3922 21.5251 24.2871 21.7331C24.2871 21.7331 24.2871 21.7331 24.3922 21.7331C24.8128 21.7331 25.1282 21.3172 25.4436 21.2132C25.6539 21.1092 25.9693 21.0052 26.1796 20.9012C26.6001 20.5893 27.1258 20.3813 27.5464 20.0693C30.9108 18.3016 34.3804 16.5338 37.7448 14.662C39.3219 13.8302 40.6887 12.9983 42.4761 12.0624C42.8966 11.8544 44.5789 10.8146 45.7354 10.7106C47.3125 10.6066 49.205 11.0225 49.6255 11.2305C50.1512 11.4385 51.3077 11.9584 51.8334 12.1664C52.0437 12.2704 52.3591 12.4783 52.4643 12.4783C52.5694 12.5823 53.6208 12.6863 54.2516 12.8943C54.4619 12.9983 54.6722 13.1023 54.8825 13.2062C55.8287 13.5182 58.2469 14.0381 59.1931 14.3501C59.9291 14.5581 60.3497 14.974 60.7702 15.078C61.2959 15.3899 61.4011 15.286 62.0319 15.4939C62.9781 15.5979 63.5038 15.9099 63.609 15.9099C63.9244 16.0139 64.1347 16.1179 64.3449 16.2218C64.5552 16.2218 65.0809 16.6378 65.2912 16.7418C65.5015 16.7418 67.0786 17.2617 67.1837 17.2617C67.394 17.2617 68.5505 17.6776 68.6556 17.7816C68.9711 17.8856 69.2865 17.9896 69.6019 18.0936L72.7561 19.2374L76.1205 20.2773L80.2209 21.8371L81.798 22.357L83.3751 22.773L84.111 22.669L84.9522 22.9809L85.7933 23.8128L86.7395 23.5009L87.3703 23.6049L87.896 24.2288L88.2114 24.6447L88.9474 24.8527L89.6834 24.9567L90.6296 24.7487L91.681 24.8527L92.1016 25.4766L93.5735 25.6846L95.6763 25.8925L96.5174 26.3085L97.2534 27.1404L98.3048 27.3484L101.144 27.7643L103.667 27.4523L105.349 27.5563L105.98 27.1404L104.403 26.8284Z" fill="white"/>
<path d="M90.2091 45.4419C90.104 45.7539 89.4731 46.1698 88.2115 46.7938C86.9498 47.4177 86.1087 47.7296 85.4779 47.7296C85.1624 47.7296 85.0573 47.6256 85.0573 47.4177C85.0573 47.1057 85.3727 46.5858 86.0035 45.6499C86.6344 44.818 86.9498 44.1941 86.9498 43.9861C86.9498 43.6742 86.8447 43.5702 86.5292 43.5702C86.1087 43.5702 85.2676 44.1941 83.9008 45.338C83.0597 46.1698 82.2185 46.8977 81.5877 47.6256C81.3774 47.9376 81.1672 48.0416 80.9569 48.0416C80.7466 48.0416 80.6415 47.9376 80.6415 47.6256C80.6415 47.5217 80.7466 47.4177 80.8517 47.1057C81.2723 46.4818 81.6928 45.9619 82.1134 45.338C82.7442 44.4021 83.0597 43.7782 83.0597 43.4662C83.0597 43.2582 82.9545 43.2582 82.8494 43.2582C82.7442 43.2582 82.6391 43.2582 82.534 43.3622C81.5877 44.0901 80.326 45.026 78.5387 46.2738H78.3284C78.2233 46.2738 78.1181 46.2738 78.1181 46.1698C78.1181 46.0659 78.2233 46.0659 78.4335 45.8579C79.6952 44.922 81.062 43.7782 82.6391 42.6343C82.8494 42.4263 83.1648 42.3224 83.4802 42.3224C83.7956 42.3224 84.0059 42.5303 84.0059 42.8423C84.0059 43.2582 83.7956 43.7782 83.2699 44.5061C82.7442 45.234 82.534 45.6499 82.534 45.7539C82.534 45.7539 82.534 45.7539 82.6391 45.7539C82.6391 45.7539 83.2699 45.234 84.4265 44.1941C85.6881 43.1542 86.5292 42.6343 86.9498 42.6343C87.5806 42.6343 88.0012 42.8423 88.0012 43.2582C88.0012 43.6742 87.6858 44.2981 87.1601 45.234C86.5292 46.1698 86.319 46.6898 86.319 46.7938C86.319 46.8977 86.4241 47.0017 86.6344 47.0017C86.9498 47.0017 87.6858 46.7938 88.632 46.2738C89.2628 45.8579 89.7885 45.5459 90.2091 45.338C90.2091 45.234 90.3142 45.234 90.4194 45.234C90.104 45.338 90.2091 45.338 90.2091 45.4419Z" fill="white"/>
<path d="M98.0945 45.4419C98.0945 45.6499 97.4637 46.1698 96.0969 46.7938C94.8352 47.5217 93.153 47.8336 91.3656 47.8336C90.3142 47.8336 89.6834 47.7296 89.5783 47.5217C89.5783 47.4177 89.6834 47.3137 89.8937 47.3137C90.2091 47.3137 90.3142 47.4177 90.4194 47.4177C91.3656 47.4177 92.3119 47.0017 93.3633 46.0659C94.3095 45.234 94.8352 44.4021 94.8352 43.7782C94.8352 43.4662 94.6249 43.3622 94.3095 43.3622C92.6273 43.3622 90.7348 44.922 88.7372 48.1456C88.5269 48.3535 87.5806 50.3293 85.7933 53.8648C84.0059 57.4003 82.9545 59.3761 82.8494 59.5841C82.7442 59.896 82.534 60 82.3237 60C82.2185 60 82.2185 60 82.1134 60C82.0083 60 81.9031 59.896 81.9031 59.688C81.9031 59.0641 86.0035 51.4731 94.0992 37.1231C94.2044 36.9151 94.4146 36.7071 94.5198 36.7071C94.5198 36.7071 94.6249 36.7071 94.6249 36.8111C94.7301 36.8111 94.7301 36.9151 94.7301 37.0191C94.7301 37.227 94.7301 37.331 94.5198 37.435C94.5198 37.435 93.7838 38.7868 92.3119 41.3865C90.9451 43.8821 90.2091 45.234 90.2091 45.4419C90.2091 45.4419 90.3142 45.338 90.4194 45.234C90.8399 44.714 91.4708 44.1941 92.2067 43.6742C93.2581 42.9463 94.0992 42.6343 94.8352 42.6343C95.3609 42.6343 95.6763 42.8423 95.6763 43.2582C95.6763 44.6101 94.6249 45.8579 92.5221 47.1057C94.0992 47.1057 95.7815 46.4818 97.5688 45.338C97.674 45.234 97.674 45.234 97.7791 45.234C98.0945 45.338 98.0945 45.338 98.0945 45.4419Z" fill="white"/>
<path d="M106.926 45.4419C106.926 45.5459 106.821 45.6499 106.506 45.8579C104.298 47.3137 102.721 48.0416 101.985 48.0416C101.459 48.0416 101.249 47.7296 101.249 47.2097C101.249 46.8977 101.354 46.5858 101.459 46.2738C101.669 45.8579 101.774 45.5459 101.774 45.5459C101.774 45.4419 101.774 45.4419 101.669 45.4419C101.669 45.4419 101.564 45.4419 101.564 45.5459C101.144 45.9619 100.618 46.3778 99.7767 47.0017C98.8305 47.7296 98.0945 48.0416 97.7791 48.0416C97.3585 48.0416 97.1483 47.8336 97.1483 47.4177C97.1483 47.2097 97.4637 46.4818 98.0945 45.338C98.7253 44.1941 99.0407 43.5702 99.0407 43.3622C99.0407 43.1542 98.8305 43.0503 98.5151 43.0503C98.4099 43.0503 98.4099 42.9463 98.4099 42.7383C98.6202 42.7383 98.7253 42.6343 98.9356 42.6343C99.5664 42.6343 99.8819 42.8423 99.8819 43.1542C99.8819 43.5702 99.5664 44.1941 99.0407 45.13C98.5151 46.0659 98.1996 46.6898 98.1996 46.8977C98.1996 47.0017 98.3048 47.1057 98.4099 47.1057C98.7253 47.1057 99.4613 46.5858 100.513 45.6499C101.669 44.714 102.51 43.8821 103.141 43.0503C103.457 42.7383 103.562 42.6343 103.772 42.6343C103.982 42.6343 104.087 42.7383 104.087 42.9463C104.087 43.0503 103.982 43.2582 103.877 43.4662C102.826 45.13 102.195 46.1698 102.195 46.5858C102.195 47.0017 102.405 47.2097 102.826 47.2097C103.457 47.2097 104.613 46.6898 106.295 45.5459C106.4 45.4419 106.506 45.4419 106.716 45.338C106.821 45.234 106.821 45.234 106.926 45.234C106.926 45.338 106.926 45.338 106.926 45.4419Z" fill="white"/>
<path d="M118.491 28.7002C118.491 30.4679 117.65 32.7556 115.863 35.4593C114.496 37.539 112.814 39.6187 110.816 41.5945C109.029 43.3622 107.978 44.2981 107.557 44.2981C107.662 45.9619 108.188 46.7938 109.134 46.7938C109.87 46.7938 110.711 46.4818 111.657 45.7539C111.447 45.4419 111.342 45.13 111.342 44.714C111.342 43.4662 111.763 42.8423 112.499 42.8423C112.814 42.8423 113.024 43.0503 113.024 43.4662C113.024 44.0901 112.709 44.714 112.183 45.338C112.499 45.8579 113.024 46.0659 113.655 46.0659C114.391 46.0659 115.022 45.7539 115.758 45.234C115.863 45.13 115.863 45.13 115.968 45.13C116.073 45.13 116.073 45.13 116.073 45.234C116.073 45.338 115.968 45.4419 115.758 45.5459C114.917 46.1698 114.181 46.5858 113.34 46.5858C112.709 46.5858 112.183 46.3778 111.763 45.9619C110.711 46.8977 109.66 47.4177 108.608 47.4177C107.978 47.4177 107.557 47.2097 107.136 46.6898C106.716 46.1698 106.506 45.6499 106.506 44.922C106.506 42.9463 107.242 40.5546 108.608 37.643C109.87 35.0433 111.447 32.7556 113.234 30.7799C115.022 28.8042 116.494 27.7643 117.545 27.7643C118.281 27.8683 118.491 28.1802 118.491 28.7002ZM117.755 29.1161C117.755 28.7002 117.545 28.4922 117.23 28.4922C116.389 28.4922 115.127 29.5321 113.55 31.5078C112.078 33.3795 110.711 35.5633 109.449 37.9549C108.188 40.4506 107.557 42.3224 107.557 43.6742C107.557 43.7782 107.557 43.7782 107.557 43.7782C107.872 43.7782 108.924 42.9463 110.501 41.1785C112.288 39.2028 113.865 37.331 115.127 35.3553C116.914 32.7556 117.755 30.6759 117.755 29.1161ZM112.919 43.7782C112.919 43.5702 112.814 43.4662 112.709 43.4662C112.288 43.4662 112.183 43.8821 112.183 44.6101C112.183 44.818 112.183 45.13 112.288 45.234C112.709 44.818 112.919 44.2981 112.919 43.7782Z" fill="white"/>
<path d="M124.905 45.4419C124.905 45.5459 124.8 45.6499 124.484 45.8579C122.276 47.3137 120.699 48.0416 119.963 48.0416C119.438 48.0416 119.227 47.7296 119.227 47.2097C119.227 46.8977 119.333 46.5858 119.438 46.2738C119.648 45.8579 119.753 45.5459 119.753 45.5459C119.753 45.4419 119.753 45.4419 119.648 45.4419C119.648 45.4419 119.543 45.4419 119.543 45.5459C119.122 45.9619 118.597 46.3778 117.755 47.0017C116.809 47.7296 116.073 48.0416 115.758 48.0416C115.337 48.0416 115.127 47.8336 115.127 47.4177C115.127 47.2097 115.442 46.4818 116.073 45.338C116.704 44.1941 117.019 43.5702 117.019 43.3622C117.019 43.1542 116.809 43.0503 116.494 43.0503C116.389 43.0503 116.389 42.9463 116.389 42.7383C116.599 42.7383 116.704 42.6343 116.914 42.6343C117.545 42.6343 117.861 42.8423 117.861 43.1542C117.861 43.5702 117.545 44.1941 117.019 45.13C116.494 46.0659 116.178 46.6898 116.178 46.8977C116.178 47.0017 116.284 47.1057 116.389 47.1057C116.704 47.1057 117.44 46.5858 118.491 45.6499C119.648 44.714 120.489 43.8821 121.12 43.0503C121.435 42.7383 121.54 42.6343 121.751 42.6343C121.961 42.6343 122.066 42.7383 122.066 42.9463C122.066 43.0503 121.961 43.2582 121.856 43.4662C120.804 45.13 120.174 46.1698 120.174 46.5858C120.174 47.0017 120.384 47.2097 120.804 47.2097C121.435 47.2097 122.592 46.6898 124.274 45.5459C124.379 45.4419 124.484 45.4419 124.695 45.338C124.8 45.234 124.8 45.234 124.905 45.234C124.905 45.338 124.905 45.338 124.905 45.4419Z" fill="white"/>
<path d="M125.431 46.7938C125.536 46.7938 125.956 46.6898 126.482 46.3778C127.428 45.8579 128.374 45.338 129.11 44.714C129.846 44.0901 130.582 43.3622 131.108 42.6343C131.423 42.3224 131.529 42.2184 131.739 42.2184C131.949 42.2184 132.054 42.3224 132.054 42.5303C132.054 42.6343 131.949 42.8423 131.844 43.0503C130.793 44.714 130.162 45.7539 130.162 46.1698C130.162 46.5858 130.372 46.7938 130.793 46.7938C131.424 46.7938 132.58 46.2738 134.262 45.13C134.262 45.13 134.367 45.026 134.473 44.922C134.578 44.818 134.683 44.818 134.788 44.818C134.893 44.818 134.893 44.818 134.893 44.922C134.893 45.026 134.788 45.13 134.473 45.338C132.265 46.7938 130.688 47.5217 129.952 47.5217C129.426 47.5217 129.216 47.2097 129.216 46.6898C129.216 46.4818 129.216 46.2738 129.321 46.0659C129.321 45.8579 129.426 45.6499 129.531 45.5459C129.636 45.338 129.636 45.234 129.741 45.13C129.741 45.026 129.846 45.026 129.846 45.026C129.846 44.922 129.846 44.922 129.741 44.922C129.636 44.922 129.426 45.026 129.216 45.234C128.9 45.4419 128.48 45.7539 127.849 46.0659C127.533 46.1698 127.218 46.3778 127.008 46.4818C126.797 46.5858 126.482 46.7938 126.272 46.8977C126.061 47.0017 125.851 47.1057 125.641 47.2097C125.431 47.3137 125.22 47.3137 125.01 47.3137C124.8 47.3137 124.484 47.2097 124.274 47.1057C124.064 47.0017 123.959 46.7938 123.959 46.4818C123.959 46.2738 123.959 46.0659 124.064 45.9619C124.169 45.8579 124.274 45.7539 124.379 45.7539C124.484 45.7539 124.589 45.7539 124.589 45.8579C124.695 45.9619 124.695 46.0659 124.8 46.1698C124.905 46.2738 124.905 46.3778 125.01 46.4818C125.115 46.5858 125.22 46.5858 125.431 46.5858V46.7938Z" fill="white"/>
<path d="M140.781 45.4419C140.781 45.5459 140.36 45.8579 139.624 46.3778C137.837 47.5217 136.47 48.1456 135.734 48.1456C134.578 48.1456 133.947 47.4177 133.947 46.0659C133.947 45.026 134.473 44.0901 135.419 43.0503C136.365 42.0104 137.311 41.4905 138.258 41.4905C138.573 41.4905 138.678 41.5945 138.678 41.9064C138.678 42.5303 138.152 43.3622 137.101 44.5061C136.26 45.338 135.524 45.9619 134.998 46.2738C135.103 47.1057 135.419 47.4177 136.155 47.4177C136.786 47.4177 137.942 47.0017 139.519 46.0659C139.624 45.9619 140.045 45.7539 140.571 45.4419C140.676 45.338 140.676 45.338 140.781 45.338C140.781 45.338 140.781 45.338 140.781 45.4419ZM137.837 42.3224C137.837 42.1144 137.732 42.0104 137.627 42.0104C137.206 42.0104 136.575 42.4263 135.944 43.3622C135.314 44.2981 134.998 45.026 134.893 45.7539C135.208 45.6499 135.734 45.13 136.575 44.4021C137.416 43.4662 137.837 42.7383 137.837 42.3224Z" fill="white"/>
<path d="M144.671 47.5217C144.356 47.6256 144.04 47.7296 143.725 47.8336C143.409 47.9376 143.199 47.9376 142.884 47.9376C142.673 47.9376 142.463 47.9376 142.253 47.8336C142.043 47.7296 141.937 47.6256 141.937 47.3137C141.832 47.1057 141.937 46.8977 142.148 46.5858C142.358 46.2738 142.568 46.0659 142.779 45.7539C143.094 45.4419 143.304 45.13 143.62 44.818C143.935 44.5061 144.145 44.1941 144.461 43.9861C144.671 43.7782 144.881 43.4662 144.986 43.3622C145.092 43.1542 145.092 43.0503 144.881 43.0503C144.776 42.9463 144.566 42.9463 144.356 43.1542C144.04 43.3622 143.725 43.5702 143.409 43.8821C142.989 44.1941 142.673 44.5061 142.148 44.818C141.727 45.13 141.307 45.4419 140.991 45.6499C140.991 45.6499 140.886 45.6499 140.886 45.5459C140.886 45.4419 140.886 45.4419 140.886 45.338C141.307 45.026 141.727 44.714 142.253 44.2981C142.673 43.8821 143.199 43.5702 143.62 43.2582C144.04 42.9463 144.461 42.6343 144.776 42.4263C145.092 42.2184 145.302 42.1144 145.512 42.1144C145.722 42.1144 145.933 42.1144 146.038 42.3224C146.143 42.4263 146.248 42.6343 146.248 42.7383C146.248 43.0503 146.143 43.3622 145.933 43.6742C145.722 43.9861 145.197 44.4021 144.671 45.026C144.356 45.338 144.04 45.5459 143.83 45.8579C143.62 46.1698 143.409 46.4818 143.304 46.6898C143.199 46.8977 143.199 47.1057 143.304 47.2097C143.409 47.3137 143.62 47.4177 144.04 47.3137C144.461 47.3137 144.776 47.3137 145.092 47.2097C145.407 47.1057 145.722 47.0017 146.038 46.8977C146.353 46.7938 146.669 46.5858 147.089 46.3778C147.51 46.1698 147.93 45.8579 148.456 45.6499H148.561C148.561 45.6499 148.561 45.6499 148.666 45.6499C148.666 45.6499 148.666 45.7539 148.666 45.8579C148.666 45.9619 148.666 46.0659 148.561 46.0659C148.141 46.3778 147.825 46.5858 147.615 46.6898C147.405 46.8977 147.089 47.0017 146.879 47.1057C146.669 47.2097 146.458 47.3137 146.143 47.4177C145.407 47.2097 145.092 47.3137 144.671 47.5217Z" fill="white"/>
<path d="M157.077 45.4419C157.077 45.5459 156.972 45.6499 156.657 45.8579C154.449 47.3137 152.872 48.0416 152.136 48.0416C151.61 48.0416 151.4 47.7296 151.4 47.2097C151.4 46.8977 151.505 46.5858 151.61 46.2738C151.82 45.8579 151.926 45.5459 151.926 45.5459C151.926 45.4419 151.926 45.4419 151.82 45.4419C151.82 45.4419 151.715 45.4419 151.715 45.5459C151.295 45.9619 150.769 46.3778 149.928 47.0017C148.982 47.7296 148.246 48.0416 147.93 48.0416C147.51 48.0416 147.299 47.8336 147.299 47.4177C147.299 47.2097 147.615 46.4818 148.246 45.338C148.877 44.1941 149.192 43.5702 149.192 43.3622C149.192 43.1542 148.982 43.0503 148.666 43.0503C148.561 43.0503 148.561 42.9463 148.561 42.7383C148.771 42.7383 148.877 42.6343 149.087 42.6343C149.718 42.6343 150.033 42.8423 150.033 43.1542C150.033 43.5702 149.718 44.1941 149.192 45.13C148.666 46.0659 148.351 46.6898 148.351 46.8977C148.351 47.0017 148.456 47.1057 148.561 47.1057C148.877 47.1057 149.613 46.5858 150.664 45.6499C151.82 44.714 152.662 43.8821 153.292 43.0503C153.608 42.7383 153.713 42.6343 153.923 42.6343C154.133 42.6343 154.239 42.7383 154.239 42.9463C154.239 43.0503 154.133 43.2582 154.028 43.4662C152.977 45.13 152.346 46.1698 152.346 46.5858C152.346 47.0017 152.556 47.2097 152.977 47.2097C153.608 47.2097 154.764 46.6898 156.447 45.5459C156.552 45.4419 156.657 45.4419 156.867 45.338C156.972 45.234 156.972 45.234 157.077 45.234C156.972 45.338 157.077 45.338 157.077 45.4419Z" fill="white"/>
<path d="M162.65 44.6101C162.965 44.2981 163.175 44.1941 163.281 44.1941C163.491 44.1941 163.596 44.2981 163.596 44.5061C163.596 44.6101 163.491 44.818 163.386 45.026C163.175 45.338 162.965 45.6499 162.86 45.8579C162.755 46.0659 162.65 46.2738 162.545 46.4818C162.545 46.6898 162.545 46.7938 162.65 46.8977C162.755 47.0017 162.965 47.0017 163.281 47.0017C163.911 47.0017 165.068 46.4818 166.75 45.338C166.75 45.338 166.855 45.234 166.96 45.13C167.066 45.026 167.171 45.026 167.276 45.026C167.276 45.026 167.381 45.026 167.381 45.13C167.381 45.234 167.276 45.338 166.96 45.5459C164.753 47.0017 163.175 47.7296 162.439 47.7296C161.914 47.7296 161.703 47.4177 161.703 46.8977C161.703 46.6898 161.703 46.3778 161.809 46.1698C161.914 45.9619 161.914 45.7539 162.019 45.6499C161.914 45.6499 161.809 45.6499 161.703 45.6499C161.598 45.6499 161.493 45.6499 161.388 45.5459C161.073 45.7539 160.652 46.0659 160.232 46.2738C159.811 46.4818 159.39 46.6898 158.97 46.8977C158.549 47.1057 158.129 47.2097 157.813 47.4177C157.393 47.5217 157.183 47.6256 156.867 47.5217C156.657 47.5217 156.341 47.4177 156.131 47.3137C155.921 47.2097 155.816 47.0017 155.816 46.6898C155.816 46.4818 155.816 46.2738 155.921 46.1698C156.026 46.0659 156.131 45.9619 156.236 45.9619C156.341 45.9619 156.447 45.9619 156.447 46.0659C156.552 46.1698 156.552 46.2738 156.657 46.3778C156.762 46.4818 156.762 46.5858 156.867 46.6898C156.972 46.7938 157.077 46.7938 157.288 46.7938H157.498C157.603 46.7938 157.708 46.7938 157.813 46.6898C158.024 46.5858 158.234 46.5858 158.549 46.3778C158.97 46.1698 159.39 45.9619 159.811 45.8579C160.126 45.7539 160.547 45.5459 160.862 45.338C160.547 45.234 160.232 45.13 159.916 45.026C159.496 44.818 159.285 44.4021 159.39 43.8821C159.39 43.4662 159.601 43.1542 159.916 42.9463C160.232 42.7383 160.547 42.5303 160.862 42.4263C161.283 42.3224 161.598 42.3224 162.019 42.3224C162.439 42.3224 162.65 42.5303 162.86 42.7383C163.07 42.9463 163.175 43.2582 163.07 43.5702C163.07 43.8821 162.755 44.4021 162.334 44.922C162.229 45.026 162.229 45.026 162.124 45.13C162.019 45.234 162.019 45.234 161.914 45.338L162.334 45.4419C162.334 45.4419 162.439 45.338 162.439 45.234C162.545 45.13 162.545 45.026 162.65 45.026C162.545 44.818 162.545 44.714 162.65 44.6101ZM162.124 44.0901C162.229 43.9861 162.229 43.8821 162.229 43.8821C162.229 43.7782 162.334 43.7782 162.334 43.6742C162.439 43.5702 162.439 43.3622 162.439 43.2582C162.439 43.0503 162.439 42.9463 162.229 42.8423C162.019 42.6343 161.809 42.6343 161.388 42.7383C160.968 42.8423 160.652 43.0503 160.442 43.2582C160.126 43.4662 159.916 43.7782 159.916 44.0901C159.811 44.4021 160.021 44.714 160.442 44.922L161.283 45.13C161.388 45.026 161.598 44.818 161.703 44.714C161.809 44.4021 162.019 44.2981 162.124 44.0901Z" fill="white"/>
<path d="M178 55.2166L0 56.2565V54.6967L178 55.2166Z" fill="white"/>
</svg>
