<svg width="15" height="10" viewBox="0 0 15 10" fill="none" xmlns="http://www.w3.org/2000/svg">
<path d="M7.27367 7.00009L5.54172 5.48413L0.589844 9.72902C0.769839 9.89602 1.01283 10 1.28083 10H13.2665C13.5335 10 13.7755 9.89602 13.9545 9.72902L9.00563 5.48413L7.27367 7.00009Z" fill="url(#paint0_linear)"/>
<path d="M13.9555 0.270993C13.7755 0.102997 13.5335 0 13.2645 0H1.27883C1.01183 0 0.769839 0.103997 0.589844 0.272993L7.27167 5.99985L13.9555 0.270993Z" fill="url(#paint1_linear)"/>
<path d="M0.273438 0.879395V9.18718L5.10631 5.08029L0.273438 0.879395Z" fill="url(#paint2_linear)"/>
<path d="M9.43945 5.07914L14.2723 9.18603V0.875244L9.43945 5.07914Z" fill="url(#paint3_linear)"/>
<defs>
<linearGradient id="paint0_linear" x1="0.384628" y1="8.04468" x2="7.38867" y2="8.64836" gradientUnits="userSpaceOnUse">
<stop stop-color="#B19973"/>
<stop offset="1" stop-color="#F0E4AD"/>
</linearGradient>
<linearGradient id="paint1_linear" x1="0.384613" y1="3.40197" x2="7.41164" y2="3.85786" gradientUnits="userSpaceOnUse">
<stop stop-color="#B19973"/>
<stop offset="1" stop-color="#F0E4AD"/>
</linearGradient>
<linearGradient id="paint2_linear" x1="0.199228" y1="5.58999" x2="2.75009" y2="5.63321" gradientUnits="userSpaceOnUse">
<stop stop-color="#B19973"/>
<stop offset="1" stop-color="#F0E4AD"/>
</linearGradient>
<linearGradient id="paint3_linear" x1="9.36524" y1="5.58754" x2="11.9161" y2="5.63075" gradientUnits="userSpaceOnUse">
<stop stop-color="#B19973"/>
<stop offset="1" stop-color="#F0E4AD"/>
</linearGradient>
</defs>
</svg>
