<svg width="12" height="13" viewBox="0 0 12 13" fill="none" xmlns="http://www.w3.org/2000/svg">
<path d="M0.527147 1.77499L1.80184 0.5H1.80214C3.30424 1.12175 4.41168 2.29429 4.98798 3.68659L4.35108 4.32423C3.85338 4.82148 3.20029 5.07003 2.54824 5.07063C2.54779 7.76612 4.73358 9.95161 7.42937 9.95161C7.42937 9.29956 7.67822 8.64692 8.17577 8.14907L8.81356 7.51187V7.51142C10.3161 8.13392 11.4234 9.30571 12 10.6986L10.7252 11.9729C10.1778 12.5202 9.36676 12.6405 8.70211 12.3369C4.07223 12.1446 0.353898 8.42702 0.162649 3.79744C-0.140349 3.13264 -0.0206509 2.32249 0.527147 1.77499Z" fill="url(#paint0_linear)"/>
<defs>
<linearGradient id="paint0_linear" x1="12.1843" y1="7.30403" x2="5.85405" y2="7.48839" gradientUnits="userSpaceOnUse">
<stop stop-color="#B19973"/>
<stop offset="1" stop-color="#F0E4AD"/>
</linearGradient>
</defs>
</svg>
