<svg width="25" height="25" viewBox="0 0 25 25" fill="none" xmlns="http://www.w3.org/2000/svg">
<path opacity="0.8" d="M1.09822 2.65628L3.75384 0H3.75446C6.88383 1.29532 9.191 3.73816 10.3916 6.63881L9.06475 7.96726C8.02788 9.00321 6.66726 9.52103 5.30883 9.52228C5.30789 15.138 9.86163 19.6911 15.4779 19.6911C15.4779 18.3327 15.9963 16.973 17.0328 15.9358L18.3616 14.6083V14.6073C21.4919 15.9042 23.7988 18.3455 25 21.2474L22.3441 23.9021C21.2038 25.0424 19.5141 25.2931 18.1294 24.6605C8.48382 24.2599 0.737289 16.5148 0.338854 6.86975C-0.292395 5.48474 -0.0430202 3.79691 1.09822 2.65628Z" fill="#222222"/>
</svg>
