<svg width="12" height="13" viewBox="0 0 12 13" fill="none" xmlns="http://www.w3.org/2000/svg">
<path d="M1.12469 1.95883L2.333 0.750244H2.33328C3.75714 1.33961 4.80691 2.45108 5.35319 3.77086L4.74946 4.3753C4.27769 4.84665 3.6586 5.08225 3.04052 5.08282C3.04009 7.63792 5.11204 9.70958 7.66742 9.70958C7.66742 9.0915 7.90331 8.47284 8.37494 8.00092L8.97952 7.39691V7.39649C10.4038 7.98656 11.4534 9.09733 12 10.4177L10.7916 11.6256C10.2727 12.1444 9.50391 12.2584 8.87388 11.9706C4.48514 11.7884 0.960467 8.2644 0.779179 3.87594C0.491961 3.24577 0.605425 2.47782 1.12469 1.95883Z" fill="#16345F"/>
</svg>
