<svg width="21" height="13" viewBox="0 0 21 13" fill="none" xmlns="http://www.w3.org/2000/svg">
<path fill-rule="evenodd" clip-rule="evenodd" d="M19.7477 1.16541C19.8963 0.699447 19.7477 0.360514 19.0912 0.360514H16.9097C16.3589 0.360514 16.1048 0.657053 15.9565 0.974826C15.9565 0.974826 14.8339 3.68599 13.2665 5.44406C12.7581 5.95242 12.5252 6.12185 12.2498 6.12185C12.1015 6.12185 11.9108 5.95242 11.9108 5.48645V1.14425C11.9108 0.593498 11.7414 0.339355 11.2755 0.339355H7.84403C7.50517 0.339355 7.29334 0.593499 7.29334 0.847717C7.29334 1.37724 8.07701 1.50435 8.16173 2.98704V6.20656C8.16173 6.90559 8.03469 7.0327 7.75931 7.0327C7.01797 7.0327 5.21758 4.3003 4.1373 1.18665C3.92548 0.572339 3.71366 0.339355 3.16298 0.339355H0.960095C0.324624 0.339355 0.21875 0.635893 0.21875 0.953591C0.21875 1.52551 0.960098 4.40617 3.67134 8.21885C5.47172 10.8241 8.03469 12.2221 10.3434 12.2221C11.7414 12.2221 11.9108 11.9043 11.9108 11.3748V9.405C11.9108 8.76953 12.038 8.66366 12.4828 8.66366C12.8005 8.66366 13.3724 8.83309 14.6644 10.0828C16.1471 11.5655 16.4013 12.2433 17.2274 12.2433H19.4093C20.0449 12.2433 20.3412 11.9256 20.1717 11.3113C19.9811 10.697 19.2607 9.80742 18.3288 8.74837C17.8208 8.1553 17.0579 7.49867 16.825 7.18097C16.5072 6.75732 16.592 6.58789 16.825 6.20656C16.8037 6.20656 19.4723 2.43628 19.7477 1.16541Z" fill="#16345F"/>
</svg>
